<?xml version="1.0" encoding="utf-8"?>
<!-- Generator: Adobe Illustrator 16.0.3, SVG Export Plug-In . SVG Version: 6.00 Build 0)  -->
<!DOCTYPE svg PUBLIC "-//W3C//DTD SVG 1.1//EN" "http://www.w3.org/Graphics/SVG/1.1/DTD/svg11.dtd">
<svg version="1.1" id="Layer_1" xmlns="http://www.w3.org/2000/svg" xmlns:xlink="http://www.w3.org/1999/xlink" x="0px" y="0px"
	 width="800px" height="800px" viewBox="0 0 800 800" style="enable-background:new 0 0 800 800;" xml:space="preserve">
<style type="text/css">
<![CDATA[
	.st0{fill:#8B2A2C;}
	.st1{fill:#58595B;}
	.st2{fill:#FFFFFF;}
]]>
</style>
<rect x="-40.869" y="-13.269" class="st0" width="862.608" height="862.612"/>
<polygon class="st0" points="158.232,705.982 642.768,705.982 400.5,137.362 "/>
<g>
	<g>
		<path class="st0" d="M234.819,684.486c-64.614-49.716-106.251-127.82-106.251-215.649c0-150.185,121.749-271.933,271.933-271.933
			c150.184,0,271.933,121.749,271.933,271.933c0,87.829-41.636,165.933-106.248,215.648"/>
		<path class="st2" d="M234.819,684.486c0,0-4.714-2.577-13.436-7.554c-2.132-1.383-4.512-2.928-7.133-4.628
			c-1.316-0.871-2.692-1.781-4.126-2.731c-0.714-0.482-1.466-0.96-2.195-1.478c-0.712-0.53-1.439-1.071-2.18-1.623
			c-2.96-2.215-6.182-4.588-9.591-7.189c-3.309-2.693-6.725-5.688-10.421-8.82c-7.253-6.387-14.876-13.985-22.75-22.804
			c-2.052-2.148-3.921-4.504-5.853-6.901c-1.937-2.411-3.911-4.867-5.921-7.369c-1.954-2.549-3.796-5.245-5.757-7.953
			c-0.972-1.364-1.952-2.739-2.94-4.126c-0.495-0.696-0.991-1.396-1.49-2.097c-0.458-0.725-0.919-1.452-1.382-2.182
			c-3.671-5.863-7.623-11.911-11.031-18.497c-0.885-1.637-1.776-3.286-2.673-4.946c-0.885-1.668-1.836-3.332-2.606-5.08
			c-1.625-3.482-3.271-7.014-4.939-10.59c-0.409-0.903-0.818-1.809-1.229-2.717c-0.395-0.914-0.698-1.861-1.038-2.8
			c-0.649-1.888-1.243-3.808-1.792-5.752c-1.04-3.905-2.049-7.872-2.62-11.979c-0.666-4.085-1.406-8.194-2.292-12.323
			c-0.744-4.153-1.295-8.388-1.952-12.649c-0.295-2.135-0.677-4.271-0.899-6.437c-0.196-2.169-0.393-4.348-0.59-6.538
			c-0.193-2.19-0.388-4.392-0.584-6.604c-0.096-1.106-0.193-2.215-0.29-3.326c-0.039-1.114-0.077-2.231-0.116-3.351
			c-0.131-4.478-0.264-8.998-0.397-13.559l-0.023-0.856c-0.008-0.015,0.01-1.431,0.008-1.017l0.01-0.394l0.04-1.579
			c0.027-1.054,0.053-2.11,0.08-3.169c0.054-2.116,0.107-4.242,0.162-6.378c0.004-2.016,0.223-4.557,0.394-6.97
			c0.182-2.431,0.365-4.87,0.548-7.32c0.097-1.224,0.194-2.449,0.291-3.678c0.148-1.177,0.296-2.355,0.444-3.537
			c0.3-2.362,0.601-4.734,0.903-7.115c0.153-1.189,0.307-2.382,0.46-3.577c0.164-1.192,0.407-2.377,0.608-3.569
			c0.425-2.381,0.851-4.771,1.279-7.17c0.216-1.199,0.432-2.4,0.648-3.604c0.206-1.205,0.527-2.39,0.787-3.589
			c0.551-2.392,1.105-4.792,1.66-7.2c4.633-19.218,11.35-38.502,20.242-57.261c8.848-18.78,20.047-36.928,33.233-53.967
			c13.197-17.032,28.456-32.92,45.497-47.115c17.1-14.123,36.02-26.466,56.245-36.64l3.783-1.931
			c1.277-0.613,2.577-1.18,3.865-1.771c2.585-1.167,5.172-2.336,7.761-3.506l1.947-0.867l1.982-0.786l3.969-1.568
			c2.652-1.032,5.289-2.115,7.964-3.098c2.7-0.916,5.402-1.832,8.105-2.749c2.705-0.916,5.402-1.858,8.167-2.59
			c5.504-1.544,10.979-3.232,16.59-4.411c22.304-5.257,45.294-7.944,68.252-7.998l8.529,0.208l3.96,0.1l1.98,0.05l2.218,0.151
			l8.938,0.66l4.467,0.347l4.279,0.531l8.544,1.088l2.134,0.275l2.12,0.375l4.237,0.753l8.466,1.532l8.38,1.927
			c5.61,1.179,11.086,2.866,16.59,4.411c2.766,0.733,5.464,1.674,8.168,2.59c2.704,0.917,5.405,1.833,8.105,2.749
			c2.676,0.982,5.312,2.066,7.964,3.098l3.969,1.569l1.983,0.785l1.946,0.867c2.59,1.17,5.177,2.339,7.762,3.506
			c1.288,0.591,2.588,1.158,3.865,1.771l3.783,1.931c20.225,10.174,39.145,22.517,56.244,36.64
			c17.042,14.195,32.301,30.083,45.498,47.115c13.187,17.038,24.386,35.186,33.234,53.966c8.893,18.758,15.609,38.042,20.242,57.26
			c4.643,19.221,7.2,38.364,8.01,56.918c0.06,2.32,0.119,4.631,0.178,6.932c0.028,1.15,0.057,2.298,0.084,3.443l0.041,1.716
			l0.01,0.429c0.015-0.49-0.011,1.154-0.01,1.124l-0.023,0.787c-0.124,4.196-0.247,8.354-0.369,12.475
			c-0.033,1.037-0.067,2.072-0.102,3.104c-0.096,1.156-0.191,2.311-0.287,3.461c-0.198,2.303-0.396,4.593-0.592,6.873
			c-0.205,2.278-0.409,4.546-0.612,6.802c-0.23,2.234-0.606,4.321-0.903,6.472c-0.656,4.262-1.208,8.496-1.951,12.649
			c-0.425,2.068-0.848,4.125-1.268,6.17c-0.398,2.05-0.74,4.101-1.087,6.14c-0.573,4.105-1.556,8.079-2.658,11.966
			c-1.159,3.871-2.458,7.65-4.252,11.202c-1.676,3.569-3.33,7.094-4.962,10.57c-0.774,1.744-1.729,3.403-2.617,5.068
			c-0.898,1.657-1.79,3.304-2.676,4.938c-3.396,6.582-7.325,12.632-11.006,18.48c-0.461,0.729-0.921,1.456-1.379,2.18
			c-0.497,0.701-0.993,1.399-1.486,2.096c-0.986,1.385-1.965,2.759-2.936,4.121c-1.957,2.707-3.796,5.4-5.746,7.947
			c-2.006,2.5-3.977,4.954-5.91,7.362c-1.944,2.387-3.797,4.749-5.845,6.896c-1.988,2.173-3.936,4.302-5.841,6.385
			c-0.95,1.034-1.889,2.058-2.817,3.068c-0.965,0.981-1.954,1.923-2.91,2.865c-1.922,1.866-3.8,3.689-5.631,5.469
			c-0.917,0.879-1.822,1.747-2.716,2.604c-0.896,0.854-1.861,1.625-2.768,2.422c-3.682,3.14-7.086,6.139-10.383,8.839
			c-3.401,2.567-6.589,4.974-9.556,7.213c-0.737,0.554-1.461,1.097-2.171,1.63c-0.723,0.518-1.464,0.989-2.171,1.47
			c-1.422,0.947-2.785,1.854-4.089,2.723c-2.602,1.707-4.967,3.258-7.084,4.646c-4.386,2.564-7.762,4.449-10.015,5.736
			c-2.253,1.276-3.415,1.936-3.415,1.936s3.519-4.006,10.116-11.517c1.543-1.947,3.266-4.122,5.163-6.516
			c0.944-1.184,1.933-2.421,2.963-3.711c0.511-0.647,1.049-1.288,1.563-1.976c0.5-0.701,1.01-1.416,1.528-2.145
			c2.061-2.89,4.274-5.994,6.637-9.307c2.261-3.371,4.527-7.04,6.968-10.826c0.596-0.959,1.243-1.891,1.815-2.902
			c0.568-1.012,1.143-2.036,1.726-3.074c1.167-2.055,2.362-4.161,3.587-6.317c0.606-1.076,1.239-2.147,1.842-3.256
			c0.563-1.134,1.132-2.28,1.708-3.438c1.144-2.303,2.313-4.655,3.505-7.057c1.249-2.351,2.253-4.912,3.363-7.45
			c1.103-2.528,2.227-5.105,3.37-7.73c1.079-2.646,2.022-5.414,3.062-8.168c0.509-1.379,1.022-2.769,1.539-4.171
			c0.258-0.698,0.518-1.399,0.777-2.104c0.219-0.723,0.438-1.448,0.66-2.176c1.709-5.843,3.787-11.667,5.164-17.922
			c0.385-1.541,0.772-3.094,1.163-4.657c0.382-1.562,0.824-3.109,1.082-4.73c0.601-3.194,1.209-6.432,1.825-9.711
			c0.153-0.813,0.309-1.631,0.464-2.449c0.151-0.819,0.238-1.659,0.377-2.486c0.261-1.657,0.599-3.299,0.999-4.935
			c0.401-1.634,0.878-3.259,1.402-4.884c0.253-0.813,0.568-1.616,0.778-2.447c0.221-0.83,0.441-1.661,0.664-2.495
			c0.43-1.672,0.87-3.354,1.258-5.059c0.366-1.708,0.734-3.427,1.104-5.154c0.62-3.479,1.063-7.029,1.622-10.596
			c0.245-1.773,0.589-3.609,0.763-5.356c0.151-1.731,0.305-3.472,0.457-5.22c0.162-1.748,0.325-3.504,0.489-5.27
			c0.085-0.882,0.171-1.767,0.256-2.653c0.049-0.979,0.066-2.04,0.101-3.06c0.122-4.12,0.245-8.279,0.369-12.476l0.023-0.787
			c0.009-0.29-0.017,1.089-0.012,0.336l-0.01-0.359l-0.039-1.442c-0.025-0.962-0.051-1.927-0.076-2.893
			c-0.048-1.934-0.096-3.875-0.145-5.824c-0.684-15.579-2.828-31.606-6.711-47.689c-3.877-16.08-9.492-32.209-16.933-47.914
			c-7.396-15.726-16.795-30.923-27.85-45.208c-11.066-14.278-23.864-27.606-38.148-39.518
			c-14.343-11.839-30.205-22.173-47.134-30.695l-3.163-1.626c-1.069-0.512-2.16-0.98-3.239-1.474
			c-2.163-0.979-4.328-1.958-6.494-2.938c-0.543-0.242-1.08-0.5-1.628-0.731l-1.661-0.651l-3.323-1.307
			c-2.221-0.86-4.422-1.779-6.66-2.602l-6.784-2.29c-2.262-0.77-4.515-1.571-6.832-2.17c-4.609-1.277-9.181-2.722-13.882-3.687
			l-7.009-1.625l-7.09-1.271l-3.547-0.637l-1.774-0.321l-1.789-0.224l-7.159-0.907l-3.575-0.455l-3.429-0.253l-6.858-0.541
			l-1.732-0.136l-1.98-0.05l-3.96-0.1l-7.313-0.192c-19.305,0.056-38.553,2.317-57.217,6.712c-4.701,0.964-9.272,2.41-13.881,3.687
			c-2.317,0.599-4.57,1.401-6.832,2.17l-6.785,2.29c-2.237,0.824-4.439,1.742-6.659,2.603l-3.324,1.307l-1.661,0.651
			c-0.548,0.232-1.084,0.488-1.627,0.731c-2.167,0.98-4.332,1.96-6.494,2.938c-1.079,0.494-2.17,0.961-3.239,1.474l-3.163,1.626
			c-16.929,8.522-32.791,18.856-47.134,30.696c-14.284,11.912-27.082,25.24-38.148,39.519
			c-11.055,14.285-20.454,29.482-27.85,45.208c-7.439,15.705-13.055,31.834-16.931,47.914c-0.466,2.016-0.93,4.023-1.392,6.024
			c-0.218,1.004-0.499,1.992-0.665,3.003c-0.178,1.008-0.356,2.014-0.534,3.019c-0.359,2.008-0.717,4.009-1.073,6.002
			c-0.169,0.998-0.382,1.988-0.516,2.988c-0.125,1.001-0.251,2.001-0.376,2.998c-0.253,1.995-0.506,3.982-0.758,5.962
			c-0.127,0.989-0.255,1.977-0.382,2.963c-0.071,0.944-0.142,1.888-0.212,2.829c-0.146,1.88-0.291,3.753-0.436,5.617
			c-0.143,1.883-0.343,3.613-0.354,5.873c-0.054,2.135-0.108,4.261-0.161,6.378c-0.027,1.059-0.054,2.114-0.08,3.168l-0.04,1.579
			l-0.01,0.395c-0.012,0.677,0.002-0.477,0.007-0.229l0.023,0.719c0.115,3.832,0.228,7.629,0.34,11.391
			c0.031,0.94,0.042,1.88,0.087,2.814c0.085,0.932,0.17,1.861,0.254,2.789c0.166,1.854,0.332,3.7,0.496,5.537
			c0.161,1.837,0.321,3.665,0.479,5.484c0.182,1.815,0.52,3.603,0.767,5.391c0.56,3.567,1.002,7.117,1.622,10.596
			c0.705,3.463,1.538,6.862,2.426,10.199c0.221,0.834,0.442,1.665,0.662,2.494c0.21,0.831,0.523,1.634,0.778,2.447
			c0.525,1.625,1.011,3.246,1.444,4.872c0.421,1.628,0.791,3.261,1.099,4.902c0.159,0.82,0.268,1.652,0.44,2.465
			c0.165,0.814,0.33,1.627,0.495,2.437c0.624,3.272,1.24,6.502,1.848,9.689c0.262,1.618,0.708,3.161,1.093,4.72
			c0.391,1.561,0.78,3.11,1.166,4.649c1.364,6.25,3.42,12.075,5.139,17.904c0.22,0.728,0.439,1.452,0.658,2.174
			c0.259,0.703,0.517,1.404,0.774,2.102c0.516,1.401,1.027,2.79,1.534,4.168c1.035,2.751,1.976,5.516,3.051,8.161
			c1.141,2.622,2.261,5.197,3.36,7.724c1.123,2.526,2.109,5.094,3.355,7.443c1.187,2.401,2.35,4.755,3.487,7.058
			c0.573,1.159,1.14,2.306,1.7,3.439c0.6,1.108,1.229,2.18,1.833,3.256c1.221,2.156,2.413,4.263,3.576,6.317
			c0.579,1.039,1.15,2.065,1.714,3.078c0.569,1.013,1.213,1.946,1.806,2.906c2.426,3.792,4.681,7.467,6.93,10.844
			c2.35,3.32,4.552,6.434,6.602,9.33c0.516,0.73,1.022,1.447,1.519,2.15c0.51,0.688,1.037,1.323,1.541,1.969
			c1.018,1.287,1.993,2.521,2.925,3.702c1.879,2.4,3.585,4.581,5.114,6.533C231.343,680.39,234.819,684.486,234.819,684.486z"/>
	</g>
	<path class="st2" d="M679.071,753.982H121.857l-22.013-33.416L378.239,67.151h44.521l278.502,653.662L679.071,753.982z
		 M158.232,705.982h484.535L400.5,137.362L158.232,705.982z"/>
	<g>
		<path class="st2" d="M234.819,684.486c0,0-4.714-2.577-13.436-7.554c-2.132-1.383-4.512-2.928-7.133-4.628
			c-1.316-0.871-2.692-1.781-4.126-2.731c-0.714-0.482-1.466-0.96-2.195-1.478c-0.712-0.53-1.439-1.071-2.18-1.623
			c-2.96-2.215-6.182-4.588-9.591-7.189c-3.309-2.693-6.725-5.688-10.421-8.82c-7.253-6.387-14.876-13.985-22.75-22.804
			c-2.052-2.148-3.921-4.504-5.853-6.901c-1.937-2.411-3.911-4.867-5.921-7.369c-1.954-2.549-3.796-5.245-5.757-7.953
			c-0.972-1.364-1.952-2.739-2.94-4.126c-0.495-0.696-0.991-1.396-1.49-2.097c-0.458-0.725-0.919-1.452-1.382-2.182
			c-3.671-5.863-7.623-11.911-11.031-18.497c-0.885-1.637-1.776-3.286-2.673-4.946c-0.885-1.668-1.836-3.332-2.606-5.08
			c-1.625-3.482-3.271-7.014-4.939-10.59c-0.409-0.903-0.818-1.809-1.229-2.717c-0.395-0.914-0.698-1.861-1.038-2.8
			c-0.649-1.888-1.243-3.808-1.792-5.752c-1.04-3.905-2.049-7.872-2.62-11.979c-0.666-4.085-1.406-8.194-2.292-12.323
			c-0.744-4.153-1.295-8.388-1.952-12.649c-0.295-2.135-0.677-4.271-0.899-6.437c-0.196-2.169-0.393-4.348-0.59-6.538
			c-0.193-2.19-0.388-4.392-0.584-6.604c-0.096-1.106-0.193-2.215-0.29-3.326c-0.039-1.114-0.077-2.231-0.116-3.351
			c-0.131-4.478-0.264-8.998-0.397-13.559l-0.023-0.856c-0.008-0.015,0.01-1.431,0.008-1.017l0.01-0.394l0.04-1.579
			c0.027-1.054,0.053-2.11,0.08-3.169c0.054-2.116,0.107-4.242,0.162-6.378c0.004-2.016,0.223-4.557,0.394-6.97
			c0.182-2.431,0.365-4.87,0.548-7.32c0.097-1.224,0.194-2.449,0.291-3.678c0.148-1.177,0.296-2.355,0.444-3.537
			c0.3-2.362,0.601-4.734,0.903-7.115c0.153-1.189,0.307-2.382,0.46-3.577c0.164-1.192,0.407-2.377,0.608-3.569
			c0.425-2.381,0.851-4.771,1.279-7.17c0.216-1.199,0.432-2.4,0.648-3.604c0.206-1.205,0.527-2.39,0.787-3.589
			c0.551-2.392,1.105-4.792,1.66-7.2c4.633-19.218,11.35-38.502,20.242-57.261c8.848-18.78,20.047-36.928,33.233-53.967
			c13.197-17.032,28.456-32.92,45.497-47.115c17.1-14.123,36.02-26.466,56.245-36.64l3.783-1.931
			c1.277-0.613,2.577-1.18,3.865-1.771c2.585-1.167,5.172-2.336,7.761-3.506l1.947-0.867l1.982-0.786l3.969-1.568
			c2.652-1.032,5.289-2.115,7.964-3.098c2.7-0.916,5.402-1.832,8.105-2.749c2.705-0.916,5.402-1.858,8.167-2.59
			c5.504-1.544,10.979-3.232,16.59-4.411c22.304-5.257,45.294-7.944,68.252-7.998l8.528,0.208l3.961,0.1l1.979,0.05l2.219,0.151
			l8.938,0.66l4.467,0.347l4.279,0.531l8.544,1.088l2.134,0.275l2.12,0.375l4.237,0.753l8.466,1.532l8.38,1.927
			c5.61,1.179,11.086,2.866,16.59,4.411c2.766,0.733,5.464,1.674,8.168,2.59c2.704,0.917,5.405,1.833,8.105,2.749
			c2.676,0.982,5.312,2.066,7.964,3.098l3.969,1.569l1.983,0.785l1.946,0.867c2.59,1.17,5.177,2.339,7.761,3.506
			c1.289,0.591,2.589,1.158,3.866,1.771l3.783,1.931c20.225,10.174,39.145,22.517,56.244,36.64
			c17.042,14.195,32.301,30.083,45.498,47.115c13.187,17.038,24.386,35.186,33.234,53.966c8.893,18.758,15.609,38.042,20.242,57.26
			c4.643,19.221,7.2,38.364,8.01,56.918c0.06,2.32,0.119,4.631,0.179,6.932c0.027,1.15,0.056,2.298,0.083,3.443l0.041,1.716
			l0.01,0.429c0.015-0.49-0.011,1.154-0.01,1.124l-0.023,0.787c-0.124,4.196-0.247,8.354-0.368,12.475
			c-0.034,1.037-0.068,2.072-0.103,3.104c-0.096,1.156-0.191,2.311-0.287,3.461c-0.198,2.303-0.396,4.593-0.592,6.873
			c-0.205,2.278-0.409,4.546-0.612,6.802c-0.23,2.234-0.606,4.321-0.903,6.472c-0.656,4.262-1.208,8.496-1.951,12.649
			c-0.425,2.068-0.848,4.125-1.268,6.17c-0.398,2.05-0.74,4.101-1.087,6.14c-0.573,4.105-1.556,8.079-2.658,11.966
			c-1.159,3.871-2.458,7.65-4.252,11.202c-1.676,3.569-3.33,7.094-4.962,10.57c-0.774,1.744-1.729,3.403-2.617,5.068
			c-0.898,1.657-1.79,3.304-2.675,4.938c-3.396,6.582-7.326,12.632-11.007,18.48c-0.461,0.729-0.921,1.456-1.379,2.18
			c-0.497,0.701-0.993,1.399-1.486,2.096c-0.986,1.385-1.965,2.759-2.935,4.121c-1.958,2.707-3.797,5.4-5.747,7.947
			c-2.007,2.5-3.977,4.954-5.91,7.362c-1.944,2.387-3.797,4.749-5.845,6.896c-1.988,2.173-3.936,4.302-5.842,6.385
			c-0.949,1.034-1.888,2.058-2.816,3.068c-0.965,0.981-1.954,1.923-2.91,2.865c-1.922,1.866-3.799,3.689-5.631,5.469
			c-0.917,0.879-1.822,1.747-2.716,2.604c-0.896,0.854-1.861,1.625-2.768,2.422c-3.682,3.14-7.086,6.139-10.383,8.839
			c-3.401,2.567-6.589,4.974-9.556,7.213c-0.737,0.554-1.461,1.097-2.171,1.63c-0.723,0.518-1.464,0.989-2.171,1.47
			c-1.422,0.947-2.785,1.854-4.089,2.723c-2.603,1.707-4.966,3.258-7.083,4.646c-4.387,2.564-7.763,4.449-10.016,5.736
			c-2.252,1.276-3.415,1.936-3.415,1.936s3.519-4.006,10.116-11.517c1.543-1.947,3.266-4.122,5.162-6.516
			c0.945-1.184,1.934-2.421,2.964-3.711c0.511-0.647,1.049-1.288,1.563-1.976c0.5-0.701,1.01-1.416,1.528-2.145
			c2.061-2.89,4.274-5.994,6.637-9.307c2.261-3.371,4.527-7.04,6.968-10.826c0.596-0.959,1.244-1.891,1.815-2.902
			c0.568-1.012,1.144-2.036,1.726-3.074c1.167-2.055,2.362-4.161,3.587-6.317c0.606-1.076,1.239-2.147,1.842-3.256
			c0.563-1.134,1.132-2.28,1.708-3.438c1.144-2.303,2.313-4.655,3.505-7.057c1.249-2.351,2.253-4.912,3.363-7.45
			c1.103-2.528,2.227-5.105,3.37-7.73c1.079-2.646,2.022-5.414,3.062-8.168c0.509-1.379,1.022-2.769,1.539-4.171
			c0.258-0.698,0.517-1.399,0.777-2.104c0.219-0.723,0.438-1.448,0.66-2.176c1.709-5.843,3.787-11.667,5.164-17.922
			c0.385-1.541,0.772-3.094,1.163-4.657c0.382-1.562,0.824-3.109,1.082-4.73c0.601-3.194,1.209-6.432,1.824-9.711
			c0.154-0.813,0.31-1.631,0.465-2.449c0.151-0.819,0.238-1.659,0.377-2.486c0.261-1.657,0.599-3.299,0.999-4.935
			c0.401-1.634,0.878-3.259,1.402-4.884c0.253-0.813,0.568-1.616,0.778-2.447c0.221-0.83,0.441-1.661,0.664-2.495
			c0.43-1.672,0.87-3.354,1.258-5.059c0.366-1.708,0.734-3.427,1.104-5.154c0.62-3.479,1.063-7.029,1.622-10.596
			c0.245-1.773,0.589-3.609,0.763-5.356c0.151-1.731,0.304-3.472,0.457-5.22c0.162-1.748,0.325-3.504,0.489-5.27
			c0.085-0.882,0.17-1.767,0.256-2.653c0.049-0.979,0.066-2.04,0.101-3.06c0.122-4.12,0.245-8.279,0.369-12.476l0.023-0.787
			c0.009-0.29-0.017,1.089-0.012,0.336l-0.01-0.359l-0.039-1.442c-0.025-0.962-0.051-1.927-0.076-2.893
			c-0.048-1.934-0.096-3.875-0.145-5.824c-0.684-15.579-2.828-31.606-6.711-47.689c-3.877-16.08-9.492-32.209-16.933-47.914
			c-7.396-15.726-16.795-30.923-27.85-45.208c-11.066-14.278-23.864-27.606-38.148-39.518
			c-14.344-11.839-30.205-22.173-47.134-30.695l-3.163-1.626c-1.069-0.512-2.16-0.98-3.24-1.474
			c-2.162-0.979-4.327-1.958-6.493-2.938c-0.543-0.242-1.08-0.5-1.628-0.731l-1.661-0.651l-3.323-1.307
			c-2.221-0.86-4.422-1.779-6.66-2.602l-6.784-2.29c-2.262-0.77-4.515-1.571-6.832-2.17c-4.609-1.277-9.181-2.722-13.882-3.687
			l-7.009-1.625l-7.09-1.271l-3.547-0.637l-1.774-0.321l-1.789-0.224l-7.158-0.907l-3.576-0.455l-3.429-0.253l-6.858-0.541
			l-1.732-0.136l-1.98-0.05l-3.96-0.1l-7.313-0.192c-19.305,0.056-38.553,2.317-57.217,6.712c-4.701,0.964-9.272,2.41-13.881,3.687
			c-2.317,0.599-4.57,1.401-6.832,2.17l-6.785,2.29c-2.237,0.824-4.439,1.742-6.659,2.603l-3.324,1.307l-1.661,0.651
			c-0.548,0.232-1.084,0.488-1.627,0.731c-2.167,0.98-4.332,1.96-6.494,2.938c-1.079,0.494-2.17,0.961-3.239,1.474l-3.163,1.626
			c-16.929,8.522-32.791,18.856-47.134,30.696c-14.284,11.912-27.082,25.24-38.148,39.519
			c-11.055,14.285-20.454,29.482-27.85,45.208c-7.439,15.705-13.055,31.834-16.931,47.914c-0.466,2.016-0.93,4.023-1.392,6.024
			c-0.218,1.004-0.499,1.992-0.665,3.003c-0.178,1.008-0.356,2.014-0.534,3.019c-0.359,2.008-0.717,4.009-1.073,6.002
			c-0.169,0.998-0.382,1.988-0.516,2.988c-0.125,1.001-0.251,2.001-0.376,2.998c-0.253,1.995-0.506,3.982-0.758,5.962
			c-0.127,0.989-0.255,1.977-0.382,2.963c-0.071,0.944-0.142,1.888-0.212,2.829c-0.146,1.88-0.291,3.753-0.436,5.617
			c-0.143,1.883-0.343,3.613-0.354,5.873c-0.054,2.135-0.108,4.261-0.161,6.378c-0.027,1.059-0.054,2.114-0.08,3.168l-0.04,1.579
			l-0.01,0.395c-0.012,0.677,0.002-0.477,0.007-0.229l0.023,0.719c0.115,3.832,0.228,7.629,0.34,11.391
			c0.031,0.94,0.042,1.88,0.087,2.814c0.085,0.932,0.17,1.861,0.254,2.789c0.166,1.854,0.332,3.7,0.496,5.537
			c0.161,1.837,0.321,3.665,0.479,5.484c0.182,1.815,0.52,3.603,0.767,5.391c0.56,3.567,1.002,7.117,1.622,10.596
			c0.705,3.463,1.538,6.862,2.426,10.199c0.221,0.834,0.442,1.665,0.662,2.494c0.21,0.831,0.523,1.634,0.778,2.447
			c0.525,1.625,1.011,3.246,1.444,4.872c0.421,1.628,0.791,3.261,1.099,4.902c0.159,0.82,0.268,1.652,0.44,2.465
			c0.165,0.814,0.33,1.627,0.495,2.437c0.624,3.272,1.24,6.502,1.848,9.689c0.262,1.618,0.708,3.161,1.093,4.72
			c0.391,1.561,0.78,3.11,1.166,4.649c1.364,6.25,3.42,12.075,5.139,17.904c0.22,0.728,0.439,1.452,0.658,2.174
			c0.259,0.703,0.517,1.404,0.774,2.102c0.516,1.401,1.027,2.79,1.534,4.168c1.035,2.751,1.976,5.516,3.051,8.161
			c1.141,2.622,2.261,5.197,3.36,7.724c1.123,2.526,2.109,5.094,3.355,7.443c1.187,2.401,2.35,4.755,3.487,7.058
			c0.573,1.159,1.14,2.306,1.7,3.439c0.6,1.108,1.229,2.18,1.833,3.256c1.221,2.156,2.413,4.263,3.576,6.317
			c0.579,1.039,1.15,2.065,1.714,3.078c0.569,1.013,1.213,1.946,1.806,2.906c2.426,3.792,4.681,7.467,6.93,10.844
			c2.35,3.32,4.552,6.434,6.602,9.33c0.516,0.73,1.022,1.447,1.519,2.15c0.51,0.688,1.037,1.323,1.541,1.969
			c1.018,1.287,1.993,2.521,2.925,3.702c1.879,2.4,3.585,4.581,5.114,6.533C231.343,680.39,234.819,684.486,234.819,684.486z"/>
	</g>
</g>
</svg>
