<?xml version="1.0" encoding="utf-8"?>
<!-- Generator: Adobe Illustrator 16.0.3, SVG Export Plug-In . SVG Version: 6.00 Build 0)  -->
<!DOCTYPE svg PUBLIC "-//W3C//DTD SVG 1.1//EN" "http://www.w3.org/Graphics/SVG/1.1/DTD/svg11.dtd">
<svg version="1.1" id="Layer_1" xmlns="http://www.w3.org/2000/svg" xmlns:xlink="http://www.w3.org/1999/xlink" x="0px" y="0px"
	 width="800px" height="800px" viewBox="0 0 800 800" style="enable-background:new 0 0 800 800;" xml:space="preserve">
<style type="text/css">
<![CDATA[
	.st0{fill:#2A5B8A;}
	.st1{fill:#DFDEDE;}
]]>
</style>
<g>
	<circle class="st0" cx="399.999" cy="511.301" r="219.932"/>
	<g>
		<path class="st1" d="M292.581,228.935c-0.694-2.875-0.391-5.136,0.201-7.22c0.61-2.073,1.787-3.796,2.751-5.65l6.025-10.979
			l12.105-21.925l12.199-21.868c4.095-7.271,8.17-14.555,12.314-21.796l12.391-21.75L363.1,96.083l12.682-21.57
			c4.263-7.168,8.533-14.333,12.894-21.44l22.643-0.011v0c18.492,28.582,36.918,57.207,55.273,85.875l27.546,42.997l27.453,43.056
			l27.453,43.057l27.319,43.072c9.158,14.472,18.387,29.421,26.716,45.207c8.352,15.762,15.736,32.378,21.56,49.61
			c2.92,8.611,5.475,17.362,7.638,26.204c2.139,8.847,3.889,17.776,5.292,26.739c1.431,8.964,2.395,17.967,3.096,26.962
			c0.154,2.249,0.348,4.5,0.47,6.748l0.326,6.744c0.133,2.25,0.138,4.49,0.206,6.736l0.08,3.368l0.02,0.842l0.01,0.421l0.001,0.675
			v1.595l0.001,3.19c0.006,0.5-0.013,1.128-0.027,1.736l-0.046,1.824l-0.102,3.643l-0.18,3.494c-0.23,4.66-0.647,9.313-1.146,13.957
			c-1.02,9.288-2.636,18.52-4.741,27.641c-4.199,18.253-10.617,36.009-18.937,52.833c-16.691,33.636-41.31,63.342-71.384,86.109
			c-29.986,22.876-65.411,38.864-102.776,46.267c-9.337,1.855-18.789,3.166-28.289,3.959c-2.375,0.225-4.754,0.334-7.134,0.501
			c-1.19,0.078-2.381,0.106-3.571,0.16l-1.787,0.07l-0.894,0.035l-0.447,0.018c0.162,0.007-0.726,0.011-0.776,0.012l-3.191,0.057
			l-1.595,0.028l-0.801,0.014l-0.944-0.008l-3.778-0.041l-1.89-0.025l-1.795-0.062c-19.116-0.585-38.273-3.358-56.887-8.407
			c-9.309-2.512-18.498-5.541-27.469-9.149c-8.968-3.614-17.733-7.759-26.245-12.389c-8.486-4.675-16.699-9.856-24.61-15.476
			c-7.904-5.633-15.42-11.806-22.614-18.335c-28.671-26.224-51.027-59.534-64.157-96.232c-6.574-18.331-10.918-37.45-12.892-56.74
			c-0.969-9.647-1.373-19.33-1.24-28.979l0.019-1.81c0.008-0.977,0.011-0.499,0.017-0.82l0.015-0.398l0.031-0.798l0.134-3.188
			l0.071-1.622l0.118-1.914l0.245-3.823c0.074-1.304,0.191-2.488,0.304-3.687l0.339-3.602c0.234-2.398,0.563-4.79,0.846-7.183
			c2.538-19.121,7.42-37.896,14.393-55.764l1.311-3.348l1.402-3.311c0.918-2.212,1.912-4.392,2.916-6.563
			c0.974-2.186,2.052-4.322,3.101-6.47c0.935-1.962,2.418-4.781,3.586-6.855c2.446-4.367,4.98-8.414,7.596-12.398
			c2.613-3.977,5.325-7.831,8.118-11.611c11.213-15.063,23.846-28.874,37.86-41.211c13.998-12.33,29.374-23.149,45.816-31.946
			c4.121-2.181,8.28-4.277,12.524-6.192c4.228-1.941,8.512-3.755,12.856-5.397c8.687-3.284,17.527-6.087,26.49-8.255
			c17.927-4.332,36.223-6.378,54.261-6.128c2.255,0.019,4.505,0.056,6.751,0.164l3.365,0.132l3.357,0.221l3.547,0.247l3.184,0.34
			c1.007,0.097,2.275,0.273,3.429,0.417c1.156,0.16,2.391,0.287,3.476,0.477c8.913,1.361,17.51,3.296,26.004,5.535
			c8.485,2.247,16.836,4.89,25.038,7.961c8.188,3.09,16.263,6.592,23.903,10.983l-2.379,5.51
			c-8.034-2.241-16.251-3.798-24.512-5.022c-8.262-1.215-16.579-2.069-24.873-2.628c-8.285-0.557-16.583-0.786-24.642-0.619
			c-1.034,0.003-1.928,0.084-2.894,0.12c-0.972,0.053-1.826,0.073-2.946,0.163l-3.194,0.225c-0.181,0.007,0.127,0.027-0.182,0.039
			l-0.379,0.041l-0.758,0.081l-1.514,0.162l-3.022,0.307l-3.01,0.38c-2.006,0.231-4.001,0.53-5.99,0.844
			c-31.869,4.837-61.515,16.837-86.725,34.677c-25.229,17.787-46.332,41.246-62.345,67.337c-1.994,3.251-3.909,6.539-5.692,9.846
			c-1.788,3.293-3.465,6.643-4.935,9.827c-0.776,1.709-1.197,2.695-1.954,4.637c-0.681,1.738-1.396,3.46-2.011,5.221
			c-0.646,1.748-1.286,3.496-1.856,5.269l-0.891,2.644l-0.823,2.664c-4.36,14.21-7.13,28.829-8.178,43.548
			c-0.103,1.843-0.259,3.679-0.329,5.522l-0.099,2.764c-0.035,0.922-0.077,1.858-0.067,2.682l-0.018,2.551l-0.015,1.273l0.02,1.567
			l0.046,3.191l0.009,0.798l0.004,0.398c0.003-0.056-0.001,0.688,0.009-0.023l0.059,1.381c0.267,7.363,0.954,14.684,2.038,21.925
			c2.156,14.483,5.913,28.651,11.144,42.229c2.628,6.784,5.615,13.426,8.943,19.892c3.331,6.465,7.059,12.721,11.045,18.808
			c3.98,6.095,8.409,11.888,13.038,17.512c4.633,5.625,9.616,10.964,14.865,16.034c10.468,10.174,22.096,19.184,34.579,26.866
			c6.245,3.839,12.722,7.312,19.375,10.436c6.64,3.157,13.494,5.882,20.486,8.232c13.984,4.718,28.583,7.765,43.432,9.15
			l1.389,0.137l1.297,0.097l2.598,0.201l0.65,0.052l0.794,0.035l1.594,0.068l3.188,0.138c0.215,0.008-0.406,0.003,0.021,0.008
			l0.351,0.008l0.702,0.015l1.402,0.03c0.936,0.014,1.872,0.057,2.807,0.05c1.869-0.023,3.745,0.019,5.614-0.048
			c7.484-0.18,14.961-0.805,22.389-1.843c29.694-4.21,58.524-15.707,83.186-33.415c24.659-17.683,45.253-41.212,59.521-68.193
			c7.107-13.5,12.718-27.816,16.527-42.639c1.911-7.408,3.436-14.928,4.466-22.53c0.504-3.802,0.951-7.615,1.236-11.446l0.225-2.874
			l0.146-2.731l0.075-1.364c0.025-0.453,0.055-0.888,0.063-1.451l0.081-3.189l0.04-1.595c0.004-0.372,0.007,0.058,0.006-0.122
			l0.001-0.377v-0.753l0.005-3.012c-0.012-2.006,0.042-4.021-0.029-6.02l-0.136-6.008c-0.056-2.002-0.18-3.993-0.266-5.99
			c-0.421-7.978-1.064-15.927-2.123-23.795c-1.03-7.873-2.357-15.688-4.02-23.426c-1.688-7.731-3.713-15.381-6.066-22.943
			c-4.706-15.13-10.777-29.882-17.932-44.4c-7.146-14.527-15.389-28.812-24.022-43.336l-52.155-87.785l-26.03-43.889l-25.938-43.948
			c-17.3-29.294-34.529-58.633-51.693-88.015l0,0l22.644-0.011c-4.378,7.098-8.847,14.14-13.322,21.177l-13.534,21.046
			l-13.685,20.954l-13.824,20.868c-4.594,6.965-9.258,13.887-13.901,20.821l-14.017,20.75l-14.11,20.692l-7.083,10.329
			c-1.22,1.697-2.227,3.525-3.802,5.004c-1.593,1.467-3.475,2.758-6.353,3.435L292.581,228.935z"/>
	</g>
</g>
</svg>
