<?xml version="1.0" encoding="utf-8"?>
<!-- Generator: Adobe Illustrator 16.0.3, SVG Export Plug-In . SVG Version: 6.00 Build 0)  -->
<!DOCTYPE svg PUBLIC "-//W3C//DTD SVG 1.1//EN" "http://www.w3.org/Graphics/SVG/1.1/DTD/svg11.dtd">
<svg version="1.1" id="Layer_1" xmlns="http://www.w3.org/2000/svg" xmlns:xlink="http://www.w3.org/1999/xlink" x="0px" y="0px"
	 width="800px" height="800px" viewBox="0 0 800 800" style="enable-background:new 0 0 800 800;" xml:space="preserve">
<style type="text/css">
<![CDATA[
	.st0{fill:#7F0D0F;stroke:#FFFFFF;stroke-width:1.5194;stroke-miterlimit:10;}
	.st1{fill:#DFDEDE;stroke:#E2DDDE;stroke-width:5.7549;stroke-miterlimit:10;}
	.st2{fill:#DFDEDE;stroke:#E2DDDE;stroke-width:0.4718;stroke-miterlimit:10;}
	.st3{fill:none;stroke:#DFDEDE;stroke-width:10;stroke-miterlimit:10;}
	.st4{fill:none;stroke:#DFDDEF;stroke-width:11.9999;stroke-miterlimit:10;}
	.st5{fill:#DFDEDE;stroke:#DFDEDE;stroke-width:0.4718;stroke-miterlimit:10;}
	.st6{fill:none;stroke:#DFDEDE;stroke-width:5;stroke-miterlimit:10;}
]]>
</style>
<g>
	<circle class="st6" cx="181.204" cy="412.571" r="43.88"/>
	<g>
		<path class="st5" d="M195.032,405.59c0,9.939-6.191,17.997-13.829,17.997c-7.637,0-13.828-8.058-13.828-17.997
			c0-9.94,0-16.583,13.828-16.583C195.032,389.007,195.032,395.649,195.032,405.59z"/>
		<path class="st5" d="M181.203,426.005c3.129,0.031,5.385-0.287,8.34-2.418c3.171,2.885,8.46,2.297,11.248,6.041
			c3.623,4.861,3.845,13.832,3.719,19.16c-0.056,2.346-18.68,7.666-23.307,7.662c-5.193-0.004-23.25-5.316-23.306-7.662
			c-0.126-5.328,0.095-14.299,3.718-19.16c2.789-3.744,8.078-3.156,11.25-6.041C175.82,425.718,178.076,426.036,181.203,426.005z"/>
	</g>
</g>
<g>
	<circle class="st6" cx="101" cy="180.314" r="43.88"/>
	<g>
		<path class="st5" d="M114.828,173.333c0,9.939-6.191,17.997-13.829,17.997c-7.637,0-13.828-8.058-13.828-17.997
			c0-9.94,0-16.583,13.828-16.583C114.828,156.75,114.828,163.393,114.828,173.333z"/>
		<path class="st5" d="M100.999,193.748c3.129,0.031,5.385-0.287,8.34-2.418c3.171,2.885,8.46,2.297,11.248,6.041
			c3.623,4.861,3.845,13.832,3.719,19.16c-0.056,2.346-18.68,7.666-23.307,7.662c-5.193-0.004-23.25-5.316-23.306-7.662
			c-0.126-5.328,0.095-14.299,3.718-19.16c2.789-3.744,8.078-3.156,11.25-6.041C95.616,193.461,97.872,193.779,100.999,193.748z"/>
	</g>
</g>
<g>
	<circle class="st6" cx="377.032" cy="78.769" r="43.88"/>
	<g>
		<path class="st5" d="M390.86,71.787c0,9.939-6.191,17.997-13.829,17.997c-7.637,0-13.828-8.058-13.828-17.997
			c0-9.94,0-16.583,13.828-16.583C390.86,55.204,390.86,61.847,390.86,71.787z"/>
		<path class="st5" d="M377.031,92.202c3.129,0.031,5.385-0.287,8.34-2.418c3.171,2.885,8.46,2.297,11.248,6.041
			c3.623,4.861,3.845,13.832,3.719,19.16c-0.056,2.346-18.68,7.666-23.307,7.662c-5.193-0.004-23.25-5.316-23.306-7.662
			c-0.126-5.328,0.095-14.299,3.718-19.16c2.789-3.744,8.078-3.156,11.25-6.041C371.648,91.915,373.904,92.233,377.031,92.202z"/>
	</g>
</g>
<g>
	<circle class="st6" cx="684.835" cy="147.451" r="43.88"/>
	<g>
		<path class="st5" d="M698.664,140.47c0,9.939-6.191,17.997-13.83,17.997c-7.637,0-13.828-8.058-13.828-17.997
			c0-9.94,0-16.583,13.828-16.583C698.664,123.887,698.664,130.529,698.664,140.47z"/>
		<path class="st5" d="M684.834,160.885c3.129,0.031,5.385-0.287,8.34-2.418c3.172,2.885,8.461,2.297,11.248,6.041
			c3.623,4.861,3.846,13.832,3.719,19.16c-0.055,2.346-18.68,7.666-23.307,7.662c-5.193-0.004-23.25-5.316-23.305-7.662
			c-0.127-5.328,0.094-14.299,3.717-19.16c2.789-3.744,8.078-3.156,11.25-6.041C679.451,160.598,681.707,160.916,684.834,160.885z"
			/>
	</g>
</g>
<g>
	<circle class="st6" cx="632.999" cy="359.624" r="43.88"/>
	<g>
		<path class="st5" d="M646.828,352.643c0,9.939-6.191,17.997-13.83,17.997c-7.637,0-13.828-8.058-13.828-17.997
			c0-9.94,0-16.583,13.828-16.583C646.828,336.06,646.828,342.702,646.828,352.643z"/>
		<path class="st5" d="M632.998,373.058c3.129,0.031,5.385-0.287,8.34-2.418c3.172,2.885,8.461,2.297,11.248,6.041
			c3.623,4.861,3.846,13.832,3.719,19.16c-0.055,2.346-18.68,7.666-23.307,7.662c-5.193-0.004-23.25-5.316-23.305-7.662
			c-0.127-5.328,0.094-14.299,3.717-19.16c2.789-3.744,8.078-3.156,11.25-6.041C627.615,372.771,629.871,373.089,632.998,373.058z"
			/>
	</g>
</g>
<g>
	<circle class="st6" cx="128.773" cy="644.172" r="43.88"/>
	<g>
		<path class="st2" d="M142.602,637.191c0,9.939-6.191,17.996-13.829,17.996c-7.638,0-13.829-8.057-13.829-17.996
			c0-9.94,0-16.583,13.829-16.583S142.602,627.251,142.602,637.191z"/>
		<path class="st2" d="M128.773,657.605c3.128,0.032,5.384-0.286,8.339-2.418c3.171,2.885,8.46,2.298,11.249,6.041
			c3.623,4.861,3.844,13.833,3.718,19.161c-0.056,2.345-18.68,7.665-23.306,7.661c-5.194-0.004-23.25-5.316-23.306-7.661
			c-0.126-5.328,0.095-14.3,3.718-19.161c2.789-3.743,8.078-3.156,11.249-6.041C123.389,657.319,125.645,657.638,128.773,657.605z"
			/>
	</g>
</g>
<g>
	<circle class="st6" cx="665.685" cy="614.178" r="43.88"/>
	<g>
		<path class="st5" d="M679.513,607.196c0,9.939-6.191,17.997-13.829,17.997c-7.637,0-13.828-8.058-13.828-17.997
			c0-9.94,0-16.583,13.828-16.583C679.513,590.613,679.513,597.256,679.513,607.196z"/>
		<path class="st5" d="M665.684,627.611c3.129,0.031,5.385-0.287,8.34-2.418c3.171,2.885,8.46,2.297,11.248,6.041
			c3.623,4.861,3.845,13.832,3.719,19.16c-0.056,2.346-18.68,7.666-23.307,7.662c-5.193-0.004-23.25-5.316-23.306-7.662
			c-0.126-5.328,0.095-14.299,3.718-19.16c2.789-3.744,8.078-3.156,11.25-6.041C660.301,627.324,662.557,627.643,665.684,627.611z"
			/>
	</g>
</g>
<g>
	<g>
		<circle class="st3" cx="403.921" cy="406.297" r="73.879"/>
	</g>
	<g>
		<path class="st1" d="M440.688,439.717c0,3.029-3.089,5.485-6.9,5.485h-59.734c-3.811,0-6.9-2.456-6.9-5.485v-37.88
			c0-3.029,3.089-5.485,6.9-5.485h59.734c3.812,0,6.9,2.456,6.9,5.485V439.717z"/>
		<path class="st4" d="M378.279,396.352c0-16.762,0-36.728,25.642-36.728c25.643,0,25.643,19.966,25.643,36.728"/>
	</g>
</g>
<path class="st3" d="M235,389.007c37.654-3.026,55.308-3.884,75.308,13.406"/>
<path class="st3" d="M129.222,228.876C158.321,291.786,218.611,358,323,364"/>
<path class="st3" d="M367.154,134.435C347,216,349.186,278,377.032,315.745"/>
<path class="st3" d="M661.504,199C640.956,264.881,520,288,470,332.418"/>
<path class="st3" d="M599.121,404.49C570,432,520.419,462.084,496.419,436"/>
<path class="st3" d="M616.303,589C566,579,494.799,548.022,453.799,489.022"/>
<path class="st3" d="M153.872,594.613C185.563,527.531,240.381,436,315,436"/>
<g>
	<circle class="st6" cx="453.799" cy="703.714" r="43.879"/>
	<g>
		<path class="st2" d="M467.627,696.733c0,9.939-6.191,17.996-13.828,17.996c-7.638,0-13.828-8.057-13.828-17.996
			c0-9.94,0-16.583,13.828-16.583S467.627,686.793,467.627,696.733z"/>
		<path class="st2" d="M453.799,717.147c3.128,0.032,5.384-0.286,8.339-2.418c3.171,2.885,8.46,2.298,11.249,6.041
			c3.623,4.861,3.844,13.833,3.719,19.161c-0.057,2.345-18.68,7.665-23.307,7.661c-5.193-0.004-23.25-5.316-23.307-7.661
			c-0.126-5.328,0.096-14.3,3.719-19.161c2.789-3.743,8.078-3.156,11.249-6.041C448.415,716.861,450.671,717.18,453.799,717.147z"/>
	</g>
</g>
<path class="st3" d="M400.251,692.714C349.949,682.714,323,544,353.808,480.177"/>
</svg>
