<?xml version="1.0" encoding="utf-8"?>
<!-- Generator: Adobe Illustrator 16.0.3, SVG Export Plug-In . SVG Version: 6.00 Build 0)  -->
<!DOCTYPE svg PUBLIC "-//W3C//DTD SVG 1.1//EN" "http://www.w3.org/Graphics/SVG/1.1/DTD/svg11.dtd">
<svg version="1.1" id="Layer_1" xmlns="http://www.w3.org/2000/svg" xmlns:xlink="http://www.w3.org/1999/xlink" x="0px" y="0px"
	 width="100px" height="100px" viewBox="0 0 100 100" style="enable-background:new 0 0 100 100;" xml:space="preserve">
<style type="text/css">
<![CDATA[
	.st0{fill:#8A2A2B;}
]]>
</style>
<g>
	<path class="st0" d="M76.445,60.529c0-0.828-0.672-1.5-1.5-1.5s-1.5,0.672-1.5,1.5c0,0.051-0.004,0.101-0.006,0.15
		c-0.513-0.71-1.068-1.397-1.707-2.037c-0.092-0.092-0.193-0.17-0.287-0.261V39.471c0-4.512-1.166-8.979-3.371-12.922
		c-4.689-8.375-13.553-13.578-23.129-13.578c-0.828,0-1.5,0.672-1.5,1.5c0,0.828,0.672,1.5,1.5,1.5
		c8.493,0,16.352,4.615,20.512,12.043c1.955,3.495,2.988,7.457,2.988,11.457v16.64c-0.646-0.383-1.312-0.733-2-1.022V39.471
		c0-3.66-0.945-7.283-2.734-10.479c-3.807-6.799-10.996-11.021-18.766-11.021c-7.771,0-14.963,4.224-18.766,11.021
		c-1.789,3.195-2.734,6.818-2.734,10.479c0,0.828,0.672,1.5,1.5,1.5c0.828,0,1.5-0.672,1.5-1.5c0-3.148,0.813-6.265,2.352-9.014
		c3.275-5.852,9.463-9.486,16.148-9.486c6.684,0,12.872,3.635,16.148,9.486c1.537,2.749,2.353,5.865,2.353,9.014v14.69
		c-0.656-0.136-1.324-0.228-2-0.283V40.564c0-0.016-0.004-0.031-0.006-0.047c0.002-0.016,0.006-0.031,0.006-0.047
		c0-9.677-7.402-17.549-16.5-17.549c-9.098,0-16.5,7.872-16.5,17.549c0,0.01,0.002,0.021,0.002,0.029s-0.002,0.02-0.002,0.029v20
		c0,4.515,1.166,8.981,3.371,12.923c4.688,8.375,13.551,13.577,23.129,13.577c0.529,0,0.992-0.274,1.26-0.688
		c1.25,0.3,2.541,0.472,3.859,0.472c4.408,0,8.551-1.718,11.668-4.834c4.449-4.447,5.815-10.824,4.113-16.463
		C76.236,63.879,76.445,62.205,76.445,60.529z M34.434,71.986c-1.955-3.494-2.988-7.455-2.988-11.457v-20
		c0-0.01-0.004-0.02-0.004-0.029s0.004-0.02,0.004-0.029c0-8.022,6.057-14.549,13.5-14.549s13.5,6.526,13.5,14.549
		c0,0.016,0.005,0.031,0.005,0.047s-0.005,0.031-0.005,0.047v13.326c-0.678,0.064-1.344,0.185-2,0.332V39.529
		c0-1.952-0.506-3.887-1.461-5.596c-2.039-3.642-5.884-5.904-10.039-5.904c-4.154,0-8.002,2.263-10.039,5.906
		c-0.957,1.706-1.461,3.641-1.461,5.594v1v19v1c0,3.658,0.945,7.283,2.734,10.479c2.426,4.337,6.303,7.689,10.936,9.513
		c0.398,0.502,0.818,0.992,1.281,1.455c0.58,0.58,1.207,1.096,1.854,1.576C43.633,82.198,37.813,78.021,34.434,71.986z
		 M51.445,56.256V40.564c0-1.151-0.322-2.297-0.932-3.315c-1.216-2.023-3.247-3.185-5.569-3.185c-2.324,0-4.354,1.162-5.57,3.188
		c-0.588,0.981-0.902,2.086-0.922,3.199c-0.002,0.026-0.008,0.052-0.008,0.078v0.035v19.965c0,0.009,0,0.018,0,0.025
		c0,0.004,0,0.006,0,0.01c0,0.006,0.002,0.011,0.002,0.017c0.008,2.79,0.73,5.551,2.096,7.985c0.844,1.509,1.93,2.86,3.207,4.043
		c0.15,1.074,0.406,2.135,0.768,3.168c-2.348-1.604-4.318-3.726-5.721-6.232c-1.539-2.75-2.352-5.868-2.352-9.016v-1v-19v-1
		c0-1.441,0.373-2.868,1.078-4.129c1.508-2.696,4.352-4.371,7.422-4.371c3.068,0,5.913,1.674,7.422,4.369
		c0.705,1.262,1.078,2.69,1.078,4.131v15.672C52.756,55.504,52.09,55.857,51.445,56.256z M46.473,60.977
		c-0.008-0.148-0.027-0.299-0.027-0.446v-20c0-0.828-0.672-1.5-1.5-1.5c-0.828,0-1.5,0.672-1.5,1.5v20
		c0,1.545,0.352,3.104,0.988,4.56c-0.322,0.969-0.551,1.956-0.688,2.958c-0.207-0.307-0.404-0.622-0.586-0.946
		c-1.121-2.002-1.715-4.274-1.715-6.57V40.564c0-0.609,0.174-1.221,0.502-1.77c0.67-1.116,1.734-1.73,2.998-1.73
		c1.262,0,2.326,0.614,2.996,1.728c0.33,0.551,0.504,1.163,0.504,1.772V58.6c-0.016,0.017-0.033,0.028-0.049,0.045
		C47.67,59.371,47.035,60.156,46.473,60.977z M69.611,79.855c-2.551,2.551-5.939,3.955-9.547,3.955
		c-3.605,0-6.996-1.404-9.547-3.955c-0.448-0.447-0.845-0.926-1.216-1.418c-0.008-0.013-0.016-0.022-0.025-0.035
		c-2.82-3.756-3.43-8.652-1.814-12.901c0-0.004,0.002-0.008,0.004-0.012c0.656-1.722,1.666-3.339,3.051-4.726
		c1.42-1.418,3.105-2.468,4.937-3.133c0.03-0.011,0.063-0.021,0.096-0.033c1.396-0.494,2.873-0.769,4.396-0.781l0,0l0,0
		c0.041,0,0.08-0.006,0.119-0.006c1.482,0,2.924,0.25,4.289,0.705c0.013,0.006,0.025,0.01,0.037,0.015
		c1.943,0.655,3.729,1.741,5.221,3.233C74.875,66.027,74.875,74.593,69.611,79.855z"/>
	<path class="st0" d="M65.883,68.083h-0.68v-2.136c0-0.104-0.012-0.205-0.031-0.303c-0.16-2.689-2.377-4.834-5.107-4.834
		c-2.729,0-4.942,2.146-5.104,4.834c-0.021,0.098-0.031,0.198-0.031,0.303v2.136h-0.682c-0.828,0-1.5,0.672-1.5,1.5v8.728
		c0,0.828,0.672,1.5,1.5,1.5h11.635c0.828,0,1.5-0.672,1.5-1.5v-8.728C67.383,68.755,66.711,68.083,65.883,68.083z M57.93,65.947
		c0-1.178,0.957-2.137,2.135-2.137c1.181,0,2.14,0.959,2.14,2.137v2.136H57.93V65.947z M64.383,76.811h-8.635v-5.728h0.682h7.273
		h0.68V76.811z"/>
</g>
</svg>
