<?xml version="1.0" encoding="utf-8"?>
<!-- Generator: Adobe Illustrator 16.0.3, SVG Export Plug-In . SVG Version: 6.00 Build 0)  -->
<!DOCTYPE svg PUBLIC "-//W3C//DTD SVG 1.1//EN" "http://www.w3.org/Graphics/SVG/1.1/DTD/svg11.dtd">
<svg version="1.1" id="Layer_1" xmlns="http://www.w3.org/2000/svg" xmlns:xlink="http://www.w3.org/1999/xlink" x="0px" y="0px"
	 width="404.98px" height="404.98px" viewBox="0 0 404.98 404.98" enable-background="new 0 0 404.98 404.98" xml:space="preserve">
<path fill="#FFFFFF" d="M405.37,75.111c-14.916,6.614-30.942,11.086-47.769,13.096c17.172-10.292,30.36-26.592,36.568-46.011
	c-16.068,9.531-33.867,16.452-52.811,20.182c-15.17-16.163-36.786-26.264-60.705-26.264c-45.931,0-83.169,37.236-83.169,83.165
	c0,6.518,0.736,12.865,2.153,18.952C130.52,134.762,69.239,101.652,28.22,51.334c-7.159,12.283-11.26,26.57-11.26,41.812
	c0,28.853,14.683,54.308,36.998,69.224c-13.632-0.432-26.457-4.172-37.669-10.403c-0.006,0.347-0.008,0.696-0.008,1.045
	c0,40.295,28.668,73.91,66.714,81.551c-6.979,1.897-14.327,2.917-21.911,2.917c-5.359,0-10.569-0.523-15.647-1.492
	c10.584,33.039,41.297,57.087,77.69,57.758c-28.463,22.306-64.323,35.601-103.287,35.601c-6.713,0-13.333-0.395-19.84-1.161
	c36.806,23.597,80.521,37.364,127.486,37.364c152.976,0,236.626-126.727,236.626-236.627c0-3.606-0.083-7.193-0.241-10.758
	C380.12,106.437,394.221,91.79,405.37,75.111z"/>
</svg>
