<?xml version="1.0" encoding="utf-8"?>
<!-- Generator: Adobe Illustrator 16.0.3, SVG Export Plug-In . SVG Version: 6.00 Build 0)  -->
<!DOCTYPE svg PUBLIC "-//W3C//DTD SVG 1.1//EN" "http://www.w3.org/Graphics/SVG/1.1/DTD/svg11.dtd">
<svg version="1.1" id="Layer_1" xmlns="http://www.w3.org/2000/svg" xmlns:xlink="http://www.w3.org/1999/xlink" x="0px" y="0px"
	 width="1200px" height="800px" viewBox="0 0 1200 800" enable-background="new 0 0 1200 800" xml:space="preserve">
<radialGradient id="SVGID_1_" cx="600" cy="550" r="1004.25" gradientUnits="userSpaceOnUse">
	<stop  offset="0" style="stop-color:#FFFFFF"/>
	<stop  offset="1" style="stop-color:#6E6E6E"/>
</radialGradient>
<rect x="-404.25" y="-454.25" fill-rule="evenodd" clip-rule="evenodd" fill="url(#SVGID_1_)" width="2008.5" height="2008.5"/>
<g>
	<path fill-rule="evenodd" clip-rule="evenodd" d="M1245.61,578.48c-0.34-0.12-0.7-0.86-0.64-1.25c0.17-1.16-0.41-1.58-1.36-1.58
		c-1.6-0.01-3.21,0.11-4.82,0.17c-1.62,0.07-3.17,0.47-4.76-0.71c-1.63-1.22-3.62-0.2-4.19,1.8c-0.05,0.16-0.24,0.28-0.34,0.4
		c-0.25-0.8-0.32-1.95-0.71-2.07c-2.1-0.63-4.27-1-6.49-1.47c-0.09,0.64-0.15,0.89-0.17,1.14c-0.06,1.02,0.27,2.33-0.24,3.01
		c-1.09,1.45-1.42-0.93-2.38-0.79c-0.06,0.01-0.16,0.02-0.19-0.01c-0.49-0.62-1.09-1.18-1.41-1.88c-0.24-0.53-0.11-1.22-0.14-1.82
		c-3.37-0.38-3.37-0.38-3.39,2.81c0,0.19-0.03,0.39,0,0.58c0.2,1.45-0.45,1.86-1.87,1.89c-12.09,0.23-24.18-0.17-36.27,0.25
		c-8.4,0.3-16.84-0.45-25.26-0.65c-3.48-0.08-6.99-0.17-10.44,0.17c-2.97,0.29-5.29-1.28-5.33-4.3c-0.08-5.11-0.17-10.22-0.2-15.33
		c-0.04-6.27-0.04-12.55-0.04-18.82c0-4.97,0.01-9.94,0.01-14.91c0-2.03,0.04-4.06-0.02-6.08c-0.08-2.78-0.37-5.56-0.3-8.33
		c0.07-2.83,0.41-5.65,0.76-8.46c0.07-0.58,0.65-1.5,1.11-1.57c3.27-0.56,6.56-0.93,9.84-1.39c0.67-0.09,1.32-0.34,1.97-0.52
		c-0.21-0.61-0.42-1.22-0.48-1.38c-4.55,0.79-8.84-0.09-13.25,0.39c0-1.06-0.03-1.76,0.01-2.46c0.1-1.85,0.33-3.69,0.32-5.54
		c-0.01-2.49-0.26-4.98-0.29-7.46c0-0.65,0.46-1.3,0.6-1.67c-1.5-2.16-0.27-4.79-1.2-6.8c-1.36,0-2.68,0-4.08,0
		c0,1.59,0.09,3.01-0.04,4.41c-0.06,0.69-0.53,1.34-0.81,2.01c-0.52-0.43-1.03-0.86-1.71-1.42c-1.63,0-3.53,0-5.59,0
		c0-1.38,0-2.62,0-4.11c-3.6,0.19-7,0.5-10.4,0.48c-1.73-0.01-2.26,0.62-2.36,2.17c0,0.07-0.01,0.13-0.01,0.2
		c-1.96,0.18-3.73,0.33-5.5,0.56c-0.51,0.07-1.02,0.46-1.43,0.82c-0.47,0.42-0.83,0.97-1.32,1.57c0.07,0.33,0.18,0.87,0.29,1.38
		c0.18-0.39,0.35-0.77,0.52-1.14c0.18,0.02,0.37,0.04,0.55,0.05c0,2.56,0,5.11,0,7.67c-0.14,0.01-0.28,0.01-0.42,0.02
		c-0.07-0.96-0.14-1.93-0.22-2.93c-0.63,1.2,0.82,3.26-1.72,3.55c2.86,0.53,2.86,0.53,3.12,4.21c2.18-0.19,4.36-0.38,6.65-0.58
		c-0.01,0.17-0.02,0.34-0.02,0.52c-0.51,0.16-1.04,0.31-1.69,0.51c0.24,1.17,0.53,2.22,0.65,3.3c0.05,0.43-0.12,1.15-0.41,1.29
		c-0.41,0.2-1.03-0.01-1.78-0.05c-0.5,0.74-0.9,1.78,0.83,2.07c1.57,0.27,3.18,0.3,4.77,0.43c5.85,0.46,11.69,0.91,17.69,1.38
		c0.13,2.4,0.25,4.44,0.36,6.48c0.13,2.63,0.32,5.27,0.36,7.9c0.06,3.65,0.04,7.3,0.01,10.95c-0.03,2.68-0.2,5.35-0.18,8.03
		c0.03,6.97,0.14,13.94,0.19,20.92c0.03,4.96,0.01,9.91,0.02,14.86c0,1.13,0.34,2.43-0.09,3.36c-0.67,1.45-1.76,3.69-2.85,3.8
		c-5.23,0.54-10.52,0.49-15.79,0.6c-1.59,0.04-3.18-0.11-4.77-0.07c-2,0.04-3.99,0.25-5.99,0.26c-1.24,0-2.48-0.35-3.72-0.32
		c-2.44,0.05-4.88,0.26-6.97,0.39c-0.79-1.09-1.92-1.95-1.94-2.83c-0.04-2.54-1.76-2.32-3.18-2.07c-2.35,0.42-4.6,1.36-6.95,1.76
		c-1.29,0.22-1.79,1.08-1.75,1.87c0.09,1.82-0.66,1.26-1.73,1.01c-1.48-0.35-3.05-0.61-4.56-0.5c-1.89,0.13-3.75,0.94-5.63,0.99
		c-4.2,0.1-8.41-0.1-12.61-0.15c-2.07-0.02-3.65,1.11-4.42,2.79c-0.84,0.38-1.58,0.9-2.29,1.45c-1.47,1.13-2.82,2.35-4.98,1.98
		c-1.85-0.32-3.78-0.39-5.66-0.33c-2.08,0.07-4.16,0.45-6.24,0.65c-1.24,0.12-1.75-0.52-1.71-1.74c0.05-1.35-0.08-2.72,0.03-4.06
		c0.13-1.58-0.54-2.08-2.03-1.94c-1.4,0.13-3.15-0.45-3.04,2.01c0.08,1.72,0.02,3.45,0.02,5.44c-2.87,0-5.56-0.04-8.24,0.01
		c-2.62,0.05-5.24,0.23-7.86,0.32c-4.49,0.14-8.99,0.25-13.48,0.36c-0.51,0.01-1.03,0.01-1.54-0.05c-2.23-0.25-4.33-0.82-6.73-0.08
		c-2.63,0.8-5.55,0.7-8.35,0.9c-4.02,0.28-8.03-0.38-12.06-0.02c-2.31,0.2-4.65,0.13-6.96,0.01c-1.1-0.05-2.21-0.42-3.27-0.76
		c-1.31-0.42-2.43-1.94-4.01-0.58c-0.08,0.07-0.47-0.1-0.62-0.25c-1.04-1.03-2.03-0.51-3.16-0.11c-1.32,0.47-2.74,0.69-4.13,0.93
		c-1.45,0.25-2.21-0.33-2.08-1.9c0.06-0.74,0.01-1.48,0.01-2.44c-1.98,0.14-3.62,0.25-5.01,0.35c-0.29,1.48-0.14,3.37-0.88,3.82
		c-1.08,0.67-2.81,0.36-3.72-1.33c-1.13,2.2-1.89,0.45-2.81-0.34c-0.72,3.31-3.47,1.68-5.44,2.96c0-2.01,0.09-3.56-0.05-5.08
		c-0.05-0.51-0.66-1.36-1.05-1.38c-1.41-0.07-2.83,0.15-4.34,0.26c0,2.18,0,3.97,0,5.85c-3.64,0-7.16,0-10.68-0.01
		c-0.31,0-0.65-0.06-0.92-0.19c-3.38-1.6-7.04-0.8-10.56-1.12c-1.79-0.16-2.65-0.62-2.91-2.32c-0.09-0.55-0.11-1.41-0.42-1.56
		c-1.99-0.94-3.71-2.37-6.09-2.65c-1.77-0.21-2.65,0.47-3.42,1.7c-1.15,1.84-2.17,3.78-3.34,5.61c-0.28,0.44-0.91,0.83-1.43,0.9
		c-2.13,0.31-4.27,0.59-6.41,0.71c-4.25,0.22-8.5,0.39-12.75,0.44c-1.16,0.01-2.34-0.71-3.5-0.68c-2.17,0.06-4.33,0.47-6.5,0.67
		c-0.82,0.07-1.66-0.06-2.49-0.07c-0.87-0.01-1.83-0.22-2.59,0.08c-4.21,1.64-8.1-0.65-12.14-0.86c-1.15-0.06-2.36-0.53-3.42-0.28
		c-3.12,0.74-6.12,2.01-9.26,2.55c-2.15,0.38-4.5,0.95-6.71-0.27c-1.08-0.6-2.29-0.95-3.15-1.3c-0.71-2.16-1.12-4.33-2.13-6.2
		c-1.37-2.56-0.87-4.18,1.58-4.57c0.94-3.32,1.73-6.54,2.77-9.68c1.97-5.96,0.38-10.58-4.81-13.79c-0.46-0.28-1-1.24-0.85-1.59
		c0.85-1.9-0.26-3.11-1.44-4.14c-0.52-0.46-1.67-0.66-2.29-0.41c-0.62,0.26-1.38,1.29-1.32,1.9c0.18,1.72,0.75,3.4,1.18,5.14
		c-2.34,1.63-2.25,1.65-2.83,4.44c-0.67,3.21-1.41,6.42-2.34,9.56c-0.48,1.62-1.47,3.09-2.22,4.62c0.17,0.11,0.33,0.22,0.5,0.33
		c1.65-2.33,3.29-4.67,5.18-7.35c0.2,2.51,0.19,4.56,0.55,6.55c0.91,4.92,1.91,9.82,3.07,14.68c0.42,1.74-0.31,2.64-1.65,2.95
		c-2.47,0.57-5,0.84-7.51,1.22c-1.23,0.19-1.72-0.39-1.84-1.6c-0.16-1.72-0.21-3.52-0.8-5.1c-0.87-2.35-0.77-4.61-0.4-6.98
		c0.4-2.63,1-5.31,0.81-7.92c-0.22-3.11-0.44-6.12,0.4-9.19c0.33-1.19,0.42-2.75-0.08-3.81c-1.14-2.44-2.63-4.74-4.17-6.96
		c-0.4-0.58-1.61-0.99-2.32-0.84c-0.6,0.13-1.43,1.2-1.4,1.82c0.08,1.8,0.54,3.59,0.89,5.58c-1.44,0.26-1.25,1.71-1.37,3.17
		c-0.28,3.38-0.66,6.76-1.21,10.11c-0.16,0.98-1.09,1.82-1.61,2.75c-0.22,0.39-0.3,0.87-0.59,1.74c1-0.67,1.51-1.02,2.23-1.5
		c-0.68,4.05-2.09,7.7-0.73,11.52c0.23,0.65,0.42,1.38,0.36,2.04c-0.12,1.36-1.59,2.16-2.4,1.35c-1.38-1.37-2.84-1.71-4.78-1.29
		c-1.5,0.33-3.21,0.85-4.65-0.58c-0.39-0.38-1.19-0.45-1.81-0.48c-1.63-0.07-3.28-0.1-4.91-0.02c-1.56,0.08-3.23-0.02-4.63,0.53
		c-6.66,2.59-13.6,2.99-20.61,2.92c-1.05-0.01-2.08-0.61-3.14-0.7c-2.49-0.2-5-0.25-7.67-0.37c0.17-1.97,0.32-3.66,0.44-5.1
		c-1.45-0.5-2.83-0.67-3.79-1.38c-1.42-1.06,0.04-2.28,0.28-3.42c0.01-0.06,0-0.13,0.02-0.19c0.52-1.75,0.97-3.51,1.58-5.23
		c0.54-1.51,1.25-2.97,2.02-4.75c0.2,2.45,0.39,4.76,0.61,7.44c0.73-0.33,1.67-0.47,2-1.01c0.27-0.43-0.17-1.33-0.33-2.02
		c-0.14-0.66-0.49-1.33-0.45-1.98c0.28-4.13-0.8-7.99-2.36-11.74c-0.53-1.27-1.1-2.97-2.14-3.5c-2.62-1.31-4.34-2.61-3.36-5.95
		c0.35-1.2-0.72-2-2.2-1.93c-1.38,0.07-1.87,0.68-2,2.01c-0.21,2.09,0.66,4.49-1.79,6.03c-0.48,0.3-0.32,1.65-0.39,2.52
		c-0.03,0.36,0.25,0.75,0.21,1.1c-0.59,4.02-1.3,8.03-1.81,12.06c-0.16,1.25-0.79,2.85,1.54,3.88c-0.17-1.52-0.48-2.73-0.39-3.9
		c0.1-1.19,0.61-2.34,0.94-3.52c1.41,2.95,1.77,5.76,1.04,8.79c-0.36,1.49-0.78,3.33,0.65,4.78c0.72,0.73,1.58,1.5,1.88,2.42
		c0.41,1.25,0.45,2.65,0.46,3.98c0.01,3.37,0.87,3.55-3.63,3.69c-3.26,0.1-6.71-1.28-9.66,1.14c-1.63-2.28-2.47-2.45-4.91-1.13
		c-0.23,0.12-0.42,0.32-0.66,0.4c-2.19,0.77-4.05,2.41-6.81,1.24c-1.5-0.64-3.54-0.05-5.33,0.06c-2.78,0.16-5.76,1.44-7.87-1.66
		c-0.22-0.32-0.97-0.56-1.35-0.44c-1.61,0.51-3.27,1-4.72,1.82c-1.03,0.58-1.56,0.59-2.67,0.01c-2.8-1.47-5.72-3.08-8.77-3.58
		c-1.92-0.32-3.71-0.74-5.57-1.25c-1.66-0.45-3.41-0.3-5.16,1.09c-1.45,1.15-3.84,1.44-5.84,1.51c-2.32,0.09-4.72-0.9-7-0.63
		c-2.33,0.27-4.42-0.04-6.57-0.68c-2.78-0.83-5.54-1.8-8.39-2.32c-1.83-0.33-3.79,0.12-5.69,0.09c-4.04-0.08-8.09-0.35-12.14-0.29
		c-1.23,0.02-2.44,0.85-3.67,1.31c-0.96,0.34-2.13,0.4-3.23,0.12c-5.06-1.25-10.01-0.48-15.04,0.3c-2.27,0.35-4.73,1.08-7.21-0.48
		c-1.85-1.17-4.35-1.84-6.1,0.79c-0.23,0.35-0.85,0.5-1.33,0.62c-1.6,0.42-3.23,0.72-4.82,1.17c-3.4,0.96-5.86-0.63-6.21-4.05
		c-0.04-0.44-0.23-0.86-0.32-1.3c-0.45-2.26,0.52-4.49,2.02-5.03c0.86-3.05,1.17-6.29,2.67-8.83c1.8-3.05,1.55-6.4,2.55-9.52
		c0.24-0.73-0.25-1.71-0.48-2.56c-0.23-0.85-0.55-1.67-0.83-2.5c-0.29-0.62-1.28-0.98-1.53-1.62c-0.94-2.36-3.14-2.63-5.01-2.8
		c-1.73-0.16-2.75-0.5-3.23-2.21c-0.42-1.51-1.77-1.81-2.92-1.33c-0.77,0.31-1.68,1.42-1.69,2.18c-0.01,0.94,0.64,2.12,1.38,2.78
		c0.81,0.73,0.72,1.02,0.37,1.97c-0.44,1.2-0.38,2.66-0.24,3.99c0.1,0.89,0.83,1.7,1.06,2.6c0.33,1.29,0.48,2.62,0.66,3.95
		c0.58,4.16,1.1,8.33,1.71,12.48c0.18,1.22,0.43,2.49,0.94,3.59c1.57,3.4-0.7,7.14-4.43,6.98c-1.37-0.06-2.72-0.57-4.09-0.81
		c-0.67-0.12-1.79-0.38-1.97-0.1c-1.19,1.85-3.09,1.68-4.85,1.97c-2.57,0.43-5.12,0.93-7.7,1.33c-1.83,0.28-3.72,0.26-5.5,0.71
		c-2.35,0.59-4.32,0.98-6.15-1.38c-1.14-1.47-2.56-3.05-5.2-2.18c-5.41,1.78-10.93,3.23-16.43,4.71c-0.59,0.16-1.38-0.23-2.02-0.49
		c-0.97-0.4-1.88-1.25-2.85-1.31c-1.84-0.12-3.71,0.08-5.55,0.34c-2.97,0.42-5.94,0.92-8.88,1.5c-1.96,0.39-4.33-1.41-4.35-3.47
		c-0.02-2.13,0.12-4.27-0.05-6.38c-0.11-1.47-0.82-2.9-0.92-4.37c-0.28-4.49,1.17-8.72,2.64-12.83c1.16-3.25,1.51-6.47,1.39-9.8
		c-0.11-3.04-1.2-5.67-4.4-6.66c-1.63-0.51-1.93-1.69-2.14-3.03c-0.1-0.63-0.07-1.29-0.01-1.93c0.14-1.64-0.83-2.52-2.22-2.52
		c-1.38-0.01-2.58,0.94-2.37,2.44c0.23,1.66,0.94,3.26,1.46,4.96c-2.65,1.61-3.09,1.66-2.96,3.81c0.25,4.03-1.66,7.41-2.58,11.08
		c-0.49,1.96-1.02,3.92-1.36,5.91c-0.21,1.27-0.07,2.59-0.14,3.89c-0.06,1.14-0.25,2.28-0.27,3.42c-0.06,2.34,0.05,4.68-0.07,7.02
		c-0.18,3.48-0.74,6.77-5.09,7.43c-0.07,0.01-0.12,0.19-0.19,0.31c0.23,0.25,0.47,0.5,0.96,1.03c-1.25,0.34-2.26,0.85-3.26,0.84
		c-3.55-0.02-7.1-0.22-10.65-0.33c-0.57-0.02-1.15,0.09-1.73,0.12c-2.59,0.15-5.18,0.3-7.52,0.44c-0.51-3.22-0.97-6.04-1.39-8.87
		c-0.33-2.21-0.83-4.42-0.82-6.63c0.01-1.27,0.57-2.91,1.47-3.72c2.1-1.89,2.13-3.9,1.51-6.37c-0.53-2.12-0.96-4.36,0.14-6.79
		c1.1,2.44,2.21,4.58,3.03,6.83c0.81,2.22,1.32,4.55,1.97,6.83c0.24-0.03,0.49-0.06,0.73-0.09c0-0.61,0.12-1.24-0.02-1.82
		c-1.01-4.28-2.18-8.52-3.07-12.82c-0.55-2.63-1.33-4.96-3.75-6.42c-0.55-0.33-1.06-0.73-1.61-1.06c-0.99-0.59-1.7-1-0.46-2.25
		c0.53-0.53,0.5-2.02,0.19-2.89c-0.45-1.27-2.8-1.87-4-1.31c-1.46,0.69-2.2,2.48-1.61,4.01c0.39,1.01,0.83,2,1.24,3
		c-0.21-0.06-0.41-0.13-0.62-0.19c-0.76,1.67-1.89,3.28-2.21,5.04c-0.9,4.91-2.11,9.6-5.63,13.62c0.51,0.04,1.22,0.04,1.49-0.31
		c1.92-2.52,3.75-5.1,5.61-7.67c0.32,1.59,0.18,3.01,0.17,4.43c-0.02,1.6-0.27,3.3,0.2,4.77c0.53,1.67,1.17,3.18,0.95,5.03
		c-0.15,1.2-0.02,2.7,0.6,3.68c1.55,2.45,2.72,5.01,3.18,7.85c0.15,0.94,0.05,2.59-0.46,2.84c-1.8,0.89-3.03,2.94-5.42,2.67
		c-2.08-0.23-4.19-0.23-6.28-0.45c-0.44-0.04-1.16-0.55-1.18-0.87c-0.09-1.52-1.06-2.25-2.29-2.42c-2.15-0.31-4.33-0.35-6.5-0.5
		c-2.12-0.14-4.29-0.01-6.34-0.46c-3.94-0.88-7.85-0.4-11.76-0.09c-0.71,0.05-1.47,0.86-1.99,1.5c-0.73,0.89-1.27,1.95-1.88,2.91
		c-1.07-1.23-1.85-2.67-3.07-3.4c-2.04-1.22-4.36-1.99-6.55-2.97c-1.09-0.48-2.56-3.11-2.38-4.28c0.52-3.45,1.12-6.89,1.55-10.35
		c0.54-4.37,0.93-8.75,1.4-13.13c0.03-0.32,0.16-0.62,0.24-0.93c0.21-0.01,0.41-0.02,0.62-0.03c0.65,3.27,1.3,6.55,1.99,10.04
		c0.28-0.55,0.69-0.98,0.67-1.38c-0.17-2.78-0.45-5.56-0.64-8.35c-0.05-0.67-0.15-1.65,0.23-1.97c0.96-0.82,0.46-1.43,0.07-2.18
		c-1.18-2.29-2.47-4.49-5.3-5.32c0.38-0.58,0.56-0.89,0.78-1.19c1-1.37,1.01-2.93-0.01-4.08c-0.54-0.61-2-0.85-2.87-0.61
		c-1.61,0.44-1.58,1.98-1.44,3.38c0.03,0.32,0.25,0.68,0.15,0.94c-0.19,0.52-0.46,1.33-0.83,1.42c-2.64,0.61-3.3,2.81-4.18,4.88
		c-1.72,4.04-0.85,8.26-0.91,12.41c0,0.34,0.41,0.69,0.63,1.04c0.23-0.31,0.46-0.61,0.69-0.92c0.19,0.07,0.37,0.13,0.56,0.19
		c0,1.86,0.19,3.74-0.05,5.57c-0.24,1.81-0.87,3.54,1.38,4.54c0.12,0.05,0.2,0.32,0.21,0.5c0.15,1.98,0.41,3.96,0.38,5.94
		c-0.03,2.04-1.59,4.16-2.82,4.34c-2.39,0.35-4.79,0.71-7.17,1.15c-2.65,0.49-3.41,0.03-3.91-2.58c-0.04-0.19,0-0.39-0.03-0.58
		c-0.25-1.49-1.02-2.28-2.61-1.8c-0.78,0.24-1.57,0.51-2.29,0.88c-1.64,0.84-3.22,1.79-4.87,2.61c-0.42,0.21-1.03,0.13-1.54,0.06
		c-0.67-0.09-1.32-0.46-1.98-0.44c-3.13,0.1-6.19-0.72-9.45,0.22c-2.59,0.74-5.59,0.15-8.41,0.03c-3.07-0.14-6.14-0.56-9.21-0.58
		c-1.42-0.01-2.66,0.15-3.84-0.93c-0.44-0.4-1.4-0.31-2.13-0.31c-1.3-0.01-2.61,0.01-3.9,0.15c-1.71,0.17-3.35-0.61-5.2,0.35
		c-2,1.05-4.42,1.64-6.7,1.74c-2.59,0.12-5.1,0.08-7.6,0.98c-0.89,0.32-2.73,0.1-3.06-0.48c-0.94-1.68-1.43-3.64-1.85-5.54
		c-0.11-0.5,0.73-1.18,1.05-1.82c0.22-0.44,0.36-0.95,0.4-1.44c0.28-3.92,2.04-7.74,0.73-11.76c-0.02-0.06,0.15-0.18,0.65-0.75
		c0.37,1.41,1.14,2.66,0.85,3.58c-0.62,1.99,0.7,2.5,1.9,3.29c0.03-0.7-0.11-1.33-0.3-1.95c-0.22-0.71-0.6-1.4-0.71-2.12
		c-0.53-3.65-0.9-7.28-2.61-10.71c-0.8-1.61-1.94-2.29-3.27-2.59c-1.85-0.43-1.95-1.41-2.01-3c-0.04-1.03-0.79-2.46-1.65-2.9
		c-0.74-0.38-2.21,0.14-3.11,0.68c-1.48,0.9-1.06,2.43-0.67,3.8c0.26,0.9,0.72,1.74,0.93,2.64c0.63,2.79,1.19,5.59,1.76,8.39
		c0.28,1.35,1.15,3.04,0.65,4c-0.76,1.45-0.79,3.13-1.48,4.33c-2.2,3.82-0.36,6.81,1.15,10.05c0.64,1.38,1.52,3.17,1.13,4.4
		c-0.6,1.89-1.86,3.94-3.45,5.05c-2.29,1.59-5.08,2.54-7.76,3.44c-0.76,0.25-2.64-0.46-2.72-0.93c-0.53-3.33-0.69-6.73,0.26-10.04
		c0.33-1.13,1.1-1.08,1.95-0.57c1.03,0.63,1.97,1.58,3.08,1.83c1.66,0.37,1.59,1.36,1.52,2.56c-0.02,0.48,0.08,0.97,0.12,1.46
		c0.5-0.18,1.27-0.22,1.45-0.57c0.98-1.87,1.82-3.81,2.67-5.75c0.08-0.18-0.08-0.48-0.07-0.42c-2.58-0.83-5.02-1.45-7.32-2.38
		c-2.73-1.11-2.94-2.11-1.67-4.78c1.75-3.69,4.61-7.02,3.72-11.58c-0.26-1.36,0.6-2.11,1.7-2.76c0.56-0.33,1.32-1.15,1.24-1.63
		c-0.52-3.4-1.01-7.01-3.93-9.23c-2.34-1.77-4.93-3.06-6.03-6.11c-0.22-0.62-1.81-1.04-2.75-1.01c-1.07,0.04-2.02,0.67-2.34,2.03
		c-0.56,2.39,0.84,3.98,1.92,5.76c0.34,0.56,0.78,1.23,0.75,1.83c-0.12,2.22-0.58,4.43-0.59,6.64c0,1.6-0.66,2.58-1.73,3.62
		c-1.13,1.1-2,2.46-3.02,3.75c1.75,1.07,1.6,0.96,2.4-0.13c0.71-0.97,1.07-2.7,3.37-2.16c-0.44,9.35-0.89,18.64-1.35,28.37
		c-1.38-0.09-2.74-0.09-4.06-0.3c-1.68-0.26-3.32-0.95-4.99-1c-3.38-0.09-6.78,0.18-10.16,0.15c-0.6,0-1.59-0.6-1.72-1.1
		c-0.36-1.38-0.46-2.85-0.5-4.28c-0.05-2.23,0.01-4.47,0.09-6.71c0.04-1.15,0.69-1.01,1.59-0.77c2.41,0.63,4.58-0.05,5.51-1.54
		c-0.57,0.08-1.13,0.15-1.69,0.25c-2.54,0.45-4.99,0.7-7.19-1.21c-0.64-0.55-1.83-0.85-2.67-0.71c-2.11,0.34-4.18,0.95-6.25,1.55
		c-0.58,0.17-1.15,0.59-1.56,1.04c-1.63,1.79-3.25,3.59-4.73,5.5c-0.53,0.68-0.77,1.67-0.88,2.55c-0.15,1.12-0.04,2.27-0.04,3.6
		c1.72,1.24,1.74,1.23,2.85-0.73c0.95-1.68,2.42-2.67,4.71-3.52c-0.08,1.39,0,2.41-0.22,3.37c-0.21,0.92-0.75,1.75-1.1,2.64
		c-1.15,2.87-2.13,3.55-5.13,3.65c-0.68,0.02-1.5,0.02-2.02,0.37c-2.88,1.96-6,3.03-9.5,3.07c-1.85,0.02-3.72,0.44-5.55,0.32
		c-3.89-0.24-7.77-0.74-11.66-1.08c-1.06-0.09-1.87-0.25-1.98-1.57c-0.09-1.1-0.84-1.5-1.92-1.25c-0.87,0.2-1.74,0.41-2.62,0.55
		c-1.56,0.24-3.14,0.69-4.69,0.6c-3.19-0.19-6.36-0.94-9.55-0.98c-5.24-0.06-10.31-0.82-15.34-2.24c-1.47-0.41-2.19-1.13-2.12-2.71
		c0.08-1.87-0.07-3.75,0.05-5.61c0.11-1.71-0.6-2.3-2.23-2.29c-6.38,0.03-12.77,0.01-19.15,0.01c-3.07,0-3.07,0-3.66-3.04
		c-0.9,0-1.82,0-2.74,0c-0.29,3.04-0.29,3.04-3.37,3.04c-6.65,0-13.29,0-19.94,0c-4.21,0-8.43,0.01-12.64-0.01
		c-2.29-0.01-3.29-1-3.29-3.22c-0.01-2.81,0-5.62,0-8.44c0-25.36,0-50.72,0-76.09c0-2.93,0.08-2.72,2.97-3.74
		c2.89-1.02,6.59-0.35,8.16-3.76c-0.38-1.04-0.7-2.1-0.71-3.16c-0.06-4.71-0.02-9.43-0.02-14.01c-3.12,0-6.07-0.11-9,0.04
		c-1.62,0.09-2.21-0.32-2.73-1.71c-0.33-0.88-0.59-1.66-0.9-2.55c-0.16-0.46-0.33-1.21-0.71-1.6c-0.43,1.43-0.69,2.42-0.92,3.48
		c-0.39,1.79-0.44,2.58-2.37,2.47c-2.44-0.13-4.9-0.03-7.36-0.01c-0.99,0.01-1.98,0.08-2.69,0.11c0,1.62,0,2.95,0,4.27
		c0,3.31,0.01,6.62,0.02,9.93c0,0.89,0.2,1.85-0.07,2.66c-0.48,1.46-0.02,2.11,1.38,2.44c2.53,0.59,5.03,1.37,7.59,1.79
		c1.3,0.21,1.55,0.7,1.56,1.86c0.05,7.92,0.2,15.84,0.23,23.76c0.07,20.59,0.1,41.17,0.14,61.76c0.01,2.53-0.78,3.62-3.17,3.66
		c-7.51,0.1-15.02,0.06-22.53,0.04c-0.4,0-0.8-0.3-1.2-0.45c-0.62-0.24-1.22-0.54-1.86-0.68c-1.63-0.38-3.79,0.99-4.79-1.47
		c-0.03-0.07-0.24-0.08-0.36-0.09c-2.34-0.15-4.68-0.29-6.88-0.43c-0.32,1.23-0.58,2.18-0.93,3.52c-4.42,0-8.72,0-13.02,0
		c-3.81,0-7.61-0.03-11.42,0.01c-2.04,0.03-4.09,0.36-6.12,0.27c-3.01-0.14-5.95-1.27-9.03-0.67C0,602.3,0,785.9,0,801
		c416.42,0,832.83,0,1249.25,0c0-17.68,0-203.86,0-221.54C1248.03,579.15,1246.79,578.91,1245.61,578.48z M1114.19,484.51
		c0.03,0.14,0.07,0.28,0.1,0.42c-0.41,0.12-0.82,0.23-1.24,0.35c-0.04-0.18-0.09-0.36-0.13-0.54
		C1113.34,484.67,1113.77,484.59,1114.19,484.51z M1113.63,492.45c-1.26,0.3-2.21,0.52-3.18,0.75c-0.04-0.18-0.07-0.34-0.1-0.5
		c0.4-0.04,0.79-0.07,1.2-0.1c-0.04-0.78-0.08-1.54-0.12-2.32c0.79,0.06,1.62,0.2,2.46,0.4c-0.53,0.34-0.94,0.6-1.39,0.88
		C1112.9,491.88,1113.15,492.07,1113.63,492.45z M1114.44,489.35c-1.02,0.08-2.03,0.17-3.04,0.25c-0.05-1.01-0.1-2.02-0.15-3.04
		c1.09,0,2.14,0,3.19,0C1114.44,487.58,1114.44,488.34,1114.44,489.35z M1128.45,482.14c0.02-0.42,0.66-0.81,1.01-1.21
		c0.15,0.12,0.3,0.24,0.45,0.36c0,2.68,0,5.35,0,8.03c-0.14,0.11-0.29,0.22-0.44,0.33c-0.35-0.46-0.96-0.89-0.99-1.36
		C1128.36,486.24,1128.35,484.18,1128.45,482.14z M1130.01,494.07c0,1.2,0,2.41,0,3.72c-1.52,0.12-2.92,0.31-4.32,0.34
		c-3.16,0.06-3.16,0.03-2.99-3.48c1.32,0,2.53,0.01,3.75,0c2.35-0.03,2.49-0.22,2.38-2.59c-0.03-0.57,0.25-1.16,0.38-1.74
		c0.27,0.05,0.53,0.1,0.8,0.15C1130.01,491.66,1130.01,492.87,1130.01,494.07z M554.99,568.45c-0.16-0.01-0.32-0.02-0.48-0.03
		c0.05-1.15,0.1-2.3,0.16-3.45c0.11,0.02,0.22,0.03,0.32,0.05C554.99,566.16,554.99,567.3,554.99,568.45z M476.03,561.68
		c0.22,0.03,0.44,0.07,0.66,0.11c-0.2,0.81-0.41,1.62-0.61,2.42c-0.17-0.04-0.34-0.07-0.51-0.11
		C475.72,563.29,475.88,562.48,476.03,561.68z M95.59,488.62c-0.03,0.27-0.75,0.46-1.16,0.69c-0.74-1.33-1.47-2.66-2.37-4.27
		c1.45,0,2.38,0,3.58,0C95.65,486.26,95.72,487.45,95.59,488.62z M89.19,476.06c0.84-0.03,1.68,0,2.51,0
		c4.31,0.04,3.94-0.59,3.94,3.9c0,3.43-1.13,4.31-4.47,3.41c-0.37-0.1-0.76-0.46-0.97-0.8c-0.86-1.41-1.71-2.83-2.46-4.31
		C87.04,476.86,87.57,476.12,89.19,476.06z M75,490.72c-0.46,1.29-1.47,1.47-2.44,1.12c-0.46-0.17-0.88-1.16-0.88-1.78
		c0.01-5.38-0.72-4.83,5.49-4.59C76.38,487.36,75.61,489.01,75,490.72z M78.45,482.87c-0.29,0.52-1.3,0.85-2,0.9
		c-4.13,0.3-4.48,0.28-4.84-4.87c-0.14-1.95,0.56-2.63,2.52-2.49c2.29,0.16,4.6,0.04,7.35,0.04
		C80.35,478.89,79.52,480.95,78.45,482.87z M228.52,598.39c-0.07,0.4-1.3,0.6-2,0.89c-0.23-0.21-0.47-0.43-0.7-0.64
		c0.61-1.35,1.21-2.71,1.82-4.06c0.26,0.04,0.53,0.07,0.79,0.11C228.49,595.92,228.74,597.19,228.52,598.39z M236.9,596.38
		c-1,0.39-2.27,0.54-3.27,0.25c-0.44-0.13-0.52-1.52-0.75-2.36c-0.01,0.01-0.02,0.03-0.03,0.04c0-0.01,0-0.01,0-0.02
		c-0.78,1.37-1.55,2.73-2.34,4.13c-1.59-1.5-2.5-6.23-1.46-7.63c0.23-0.32,1.04-0.58,1.32-0.42c0.86,0.5,1.75,1.1,2.33,1.89
		c0.34,0.47,0.13,1.34,0.16,2.04c0.01-0.02,0.02-0.03,0.03-0.05c0,0.01,0,0.02,0.01,0.03c0.88-0.99,0.87-2,0.11-3.05
		c-0.83-1.15,0-1.98,0.72-2.62c0.24-0.21,1.48,0.13,1.65,0.49c0.72,1.59,1.3,3.26,1.74,4.95
		C237.29,594.8,237.23,596.25,236.9,596.38z M277.04,594.85c0.07-0.73,0.14-0.8,3.46-3.09c-1.83-0.87-3.25-5.12-2.5-7.52
		c1.45,0.38,3.9,4.36,3.92,6.35C281.92,592.21,279.97,593.92,277.04,594.85z M373.78,588.03c-3.36-2.55-1.15-5.6-1.54-8.26
		c-0.03-0.18,0.64-0.65,0.95-0.63c0.29,0.02,0.77,0.51,0.78,0.82c0.1,1.68,0.12,3.37,0.1,5.06
		C374.05,585.96,373.9,586.89,373.78,588.03z M473.98,593.9c-1.46-0.62-2.48-1.11-3.54-1.49c-0.74-0.26-1.54-0.48-2.31-0.48
		c-1.33,0-2.66,0.17-3.99,0.29c-1.67,0.15-2.04-0.68-1.64-2.12c0.65-2.31,1.33-4.62,1.93-6.95c0.22-0.86,0.26-1.76,0.73-2.34
		c1.17-1.27,2.34-2.53,3.6-3.89c0.24,1.21,0.48,2.4,0.75,3.74c2.47-0.62,3.19,0.68,3.41,2.81c0.15,1.49,0.86,2.92,1.01,4.42
		C474.12,589.64,473.98,591.41,473.98,593.9z M721.9,590.93c-1.26,0.49-1.77-0.1-1.6-1.23c0.3-1.98,0.76-3.94,1.19-6.09
		c4.13,1.09,1.93,4.3,2.97,6.51C723.53,590.41,722.7,590.62,721.9,590.93z M787.24,587.93c-1.37-0.51-3.34-0.63-3.99-1.62
		c-2.04-3.1-0.3-5.83,1.88-8.75c0.93,3.42,1.78,6.55,2.63,9.67C787.58,587.46,787.41,587.7,787.24,587.93z M804.45,589.44
		c-0.07-0.56-0.15-1.11-0.22-1.67c0.19-0.03,0.38-0.06,0.57-0.09c0.11,0.55,0.22,1.11,0.33,1.66
		C804.9,589.37,804.68,589.41,804.45,589.44z"/>
	<path fill-rule="evenodd" clip-rule="evenodd" d="M1101.47,491.08c0,0.54,0,1.08,0,1.63c0.04,0,0.07-0.01,0.11-0.01
		c0-0.54,0-1.08,0-1.61C1101.54,491.08,1101.5,491.08,1101.47,491.08z"/>
</g>
</svg>
