<?xml version="1.0" encoding="utf-8"?>
<!-- Generator: Adobe Illustrator 16.0.3, SVG Export Plug-In . SVG Version: 6.00 Build 0)  -->
<!DOCTYPE svg PUBLIC "-//W3C//DTD SVG 1.1//EN" "http://www.w3.org/Graphics/SVG/1.1/DTD/svg11.dtd">
<svg version="1.1" id="Default_g_x2B__icon" xmlns="http://www.w3.org/2000/svg" xmlns:xlink="http://www.w3.org/1999/xlink"
	 x="0px" y="0px" width="512.059px" height="512px" viewBox="0 0 512.059 512" enable-background="new 0 0 512.059 512"
	 xml:space="preserve">
<g transform="matrix(1 0 0 1 7.629395e-006 7.629395e-006)">
</g>
<g transform="matrix(1 0 0 1 7.629395e-006 7.629395e-006)">
</g>
<g>
	<polygon fill="#FFFFFF" points="511.161,227.99 444.68,227.99 444.68,161.52 410.709,161.52 410.709,227.99 344.241,227.99 
		344.241,260.49 410.709,260.49 410.709,326.96 444.68,326.96 444.68,260.49 511.161,260.49 	"/>
	<path fill="#FFFFFF" d="M273.459,290.5l-24.2-18.48c-7.37-5.979-17.44-13.92-17.44-28.45c0-14.56,10.07-23.85,18.8-32.44
		c28.19-21.8,56.39-44.99,56.39-93.92c0-50.3-30.6-74.58-46.03-87.15h39.8L344.25,3.48L204.27,3.45
		c-36.27,0-85.19,3.74-123.48,34.83c-28.84,24.46-38.31,60.41-38.31,90.84c0,51.55,40.29,103.83,111.45,103.83
		c6.72,0,14.08-0.66,21.49-1.31c-3.34,7.93-6.72,14.56-6.72,25.799c0,20.49,10.73,33.051,20.15,44.961
		c-30.21,2.02-86.64,5.31-128.23,30.439C20.96,356.029,8.91,389.73,8.91,413.56c0,48.971,45.07,95.08,142.44,95.08
		c115.46,0,178.49-63.31,178.49-125.489C329.84,337.5,302.991,314.99,273.459,290.5z M185.51,216.1
		c-57.75,0-83.94-73.43-83.94-117.74c0-17.22,3.34-36.71,14.75-50.61c10.77-13.24,29.55-20.18,47.03-20.18
		c55.71,0,84.58,74.1,84.57,121.71c0,11.91-1.33,31.39-16.77,46.64C220.38,206.51,202.28,216.1,185.51,216.1z M186.1,480.41
		c-71.83,0-118.18-33.76-118.18-80.73c0-46.979,42.96-62.84,57.73-68.13c28.2-9.271,64.47-10.6,70.53-10.6c6.69,0,10.05,0,15.4,0.68
		c51.07,35.74,73.23,53.54,73.23,87.34C284.81,449.92,250.54,480.41,186.1,480.41z"/>
</g>
</svg>
