<?xml version="1.0" encoding="utf-8"?>
<!-- Generator: Adobe Illustrator 16.0.3, SVG Export Plug-In . SVG Version: 6.00 Build 0)  -->
<!DOCTYPE svg PUBLIC "-//W3C//DTD SVG 1.1//EN" "http://www.w3.org/Graphics/SVG/1.1/DTD/svg11.dtd">
<svg version="1.1" id="Layer_1" xmlns="http://www.w3.org/2000/svg" xmlns:xlink="http://www.w3.org/1999/xlink" x="0px" y="0px"
     width="530.973px" height="551.986px" viewBox="0 0 530.973 551.986" enable-background="new 0 0 530.973 551.986"
     xml:space="preserve">
    <path d="M264.856,17.667C118.614,17.667,0,136.265,0,282.556c0,117.002,75.9,216.283,181.151,251.311
        c13.235,2.422,18.079-5.756,18.079-12.766c0-6.297-0.239-22.945-0.358-45.057c-73.669,15.998-89.198-35.512-89.198-35.512
        c-12.052-30.6-29.415-38.744-29.415-38.744c-24.048-16.443,1.802-16.102,1.802-16.102c26.588,1.875,40.57,27.303,40.57,27.303
        c23.628,40.467,61.998,28.797,77.091,22.018c2.39-17.127,9.233-28.797,16.792-35.418c-58.807-6.678-120.646-29.408-120.646-130.904
        c0-28.907,10.329-52.551,27.287-71.073c-2.731-6.701-11.821-33.623,2.581-70.097c0,0,22.246-7.122,72.828,27.152
        c21.126-5.866,43.793-8.828,66.309-8.924c22.484,0.096,45.15,3.058,66.309,8.924c50.551-34.274,72.766-27.152,72.766-27.152
        c14.45,36.458,5.357,63.379,2.627,70.097c16.999,18.522,27.239,42.166,27.239,71.073c0,101.75-61.934,124.139-120.938,130.697
        c9.511,8.178,17.982,24.342,17.982,49.057c0,35.41-0.342,63.984-0.342,72.662c0,7.09,4.778,15.314,18.213,12.734
        c105.148-35.092,180.985-134.311,180.985-251.279C529.745,136.265,411.131,17.667,264.856,17.667z"/>
</svg>