<?xml version="1.0" encoding="utf-8"?>
<!-- Generator: Adobe Illustrator 16.0.3, SVG Export Plug-In . SVG Version: 6.00 Build 0)  -->
<!DOCTYPE svg PUBLIC "-//W3C//DTD SVG 1.1//EN" "http://www.w3.org/Graphics/SVG/1.1/DTD/svg11.dtd">
<svg version="1.1" id="feed_icon" xmlns="http://www.w3.org/2000/svg" xmlns:xlink="http://www.w3.org/1999/xlink" x="0px" y="0px"
	 width="128px" height="128px" viewBox="0 0 128 128" style="enable-background:new 0 0 128 128;" xml:space="preserve">
<g>
	<g>
		<path style="fill:#FFFFFF;" d="M48.61,47.72c8.35,0,16.19,3.26,22.09,9.19c5.9,5.93,9.16,13.83,9.16,22.24h12.86
			c0-24.42-19.78-44.28-44.1-44.28V47.72z"/>
	</g>
	<g>
		<path style="fill:#FFFFFF;" d="M48.63,24.92c29.74,0,53.94,24.33,53.94,54.23h12.86c0-36.99-29.96-67.09-66.79-67.09V24.92z"/>
	</g>
	<g>
		<path style="fill:#FFFFFF;" d="M69.38,85.51c0,8.05-2.74,14.94-8.21,20.68c-5.48,5.74-12.07,8.61-19.79,8.61
			c-7.78,0-14.41-2.85-19.89-8.56c-5.48-5.7-8.21-12.61-8.21-20.73V44.26c0-2.77,0.83-4.91,2.49-6.43c1.66-1.52,3.62-2.28,5.87-2.28
			c2.26,0,4.21,0.76,5.87,2.28s2.49,3.67,2.49,6.44v41.32c0,3.37,1.12,6.23,3.35,8.57c2.23,2.34,4.92,3.52,8.08,3.52
			c3.09,0,5.76-1.17,8.03-3.53c2.27-2.35,3.4-5.22,3.4-8.6c0-3.38-1.04-5.99-3.12-7.85c-2.08-1.85-4.9-2.78-8.46-2.78
			c-2.57,0-4.62-0.89-6.13-2.67c-1.38-1.52-2.08-3.43-2.08-5.74c0-2.24,0.73-4.21,2.18-5.89c1.45-1.68,3.46-2.52,6.04-2.52
			c8.18,0,14.9,2.56,20.18,7.67C66.74,70.89,69.38,77.47,69.38,85.51z"/>
	</g>
</g>
</svg>
