<?xml version="1.0" encoding="utf-8"?>
<!-- Generator: Adobe Illustrator 16.0.3, SVG Export Plug-In . SVG Version: 6.00 Build 0)  -->
<!DOCTYPE svg PUBLIC "-//W3C//DTD SVG 1.1//EN" "http://www.w3.org/Graphics/SVG/1.1/DTD/svg11.dtd">
<svg version="1.1" id="Layer_1" xmlns="http://www.w3.org/2000/svg" xmlns:xlink="http://www.w3.org/1999/xlink" x="0px" y="0px"
	 width="400px" height="400px" viewBox="0 0 400 400" enable-background="new 0 0 400 400" xml:space="preserve">
<path id="White_2_" fill="#FFFFFF" d="M377.66,0H22.06C9.88,0,0,9.88,0,22.06v355.59c0,12.18,9.88,22.06,22.06,22.06H213.5V244.93
	h-52.09V184.6h52.09v-44.49c0-51.63,31.53-79.74,77.59-79.74c22.06,0,41.02,1.64,46.55,2.38v53.95l-31.94,0.01
	c-25.05,0-29.9,11.9-29.9,29.37v38.52h59.74l-7.78,60.33H275.8v154.79h101.86c12.18,0,22.06-9.88,22.06-22.06V22.06
	C399.72,9.88,389.84,0,377.66,0z"/>
</svg>
