<?xml version="1.0" encoding="utf-8"?>
<!-- Generator: Adobe Illustrator 16.0.3, SVG Export Plug-In . SVG Version: 6.00 Build 0)  -->
<!DOCTYPE svg PUBLIC "-//W3C//DTD SVG 1.1//EN" "http://www.w3.org/Graphics/SVG/1.1/DTD/svg11.dtd">
<svg version="1.1" id="Layer_1" xmlns="http://www.w3.org/2000/svg" xmlns:xlink="http://www.w3.org/1999/xlink" x="0px" y="0px"
	 width="404.98px" height="404.98px" viewBox="0 0 404.98 404.98" enable-background="new 0 0 404.98 404.98" xml:space="preserve">
<path fill="#FFFFFF" d="M405.37,75.11c-14.92,6.61-30.94,11.09-47.77,13.1c17.17-10.29,30.36-26.59,36.57-46.01
	c-16.07,9.53-33.87,16.45-52.81,20.18c-15.17-16.16-36.79-26.26-60.71-26.26c-45.93,0-83.17,37.24-83.17,83.16
	c0,6.52,0.74,12.87,2.15,18.95c-69.12-3.47-130.4-36.58-171.42-86.9C21.06,63.62,16.96,77.9,16.96,93.15
	c0,28.85,14.68,54.31,37,69.22c-13.63-0.43-26.46-4.17-37.67-10.4c-0.01,0.35-0.01,0.7-0.01,1.05c0,40.29,28.67,73.91,66.71,81.55
	c-6.98,1.9-14.33,2.92-21.91,2.92c-5.36,0-10.57-0.52-15.65-1.49c10.58,33.04,41.3,57.09,77.69,57.76
	c-28.46,22.31-64.32,35.6-103.29,35.6c-6.71,0-13.33-0.4-19.84-1.16c36.81,23.6,80.52,37.36,127.49,37.36
	c152.98,0,236.63-126.73,236.63-236.63c0-3.61-0.08-7.19-0.24-10.76C380.12,106.44,394.22,91.79,405.37,75.11z"/>
</svg>
