<?xml version="1.0" encoding="utf-8"?>
<!-- Generator: Adobe Illustrator 16.0.3, SVG Export Plug-In . SVG Version: 6.00 Build 0)  -->
<!DOCTYPE svg PUBLIC "-//W3C//DTD SVG 1.1//EN" "http://www.w3.org/Graphics/SVG/1.1/DTD/svg11.dtd">
<svg version="1.1" id="Layer_1" xmlns="http://www.w3.org/2000/svg" xmlns:xlink="http://www.w3.org/1999/xlink" x="0px" y="0px"
	 width="400px" height="400px" viewBox="0 0 400 400" enable-background="new 0 0 400 400" xml:space="preserve">
<g>
	<path fill="#FFFFFF" d="M59.83,121.56c32.83,0,51.99,17.56,51.99,47.2c0,31.92-21.89,49.25-64.76,49.25H17.65v58.37
		c0,1.37-0.68,2.05-2.05,2.05H4.65c-1.37,0-2.05-0.68-2.05-2.05V123.61c0-1.37,0.69-2.05,2.05-2.05H59.83z M17.65,204.33h29.42
		c33.06,0,49.25-12.54,49.25-35.57c0-21.21-13.68-33.52-36.48-33.52H17.65V204.33z"/>
	<path fill="#FFFFFF" d="M196.4,121.56c41.04,0,65.9,29.87,65.9,78.44c0,48.34-25.08,78.44-65.9,78.44H146
		c-1.37,0-2.05-0.68-2.05-2.05V123.61c0-1.37,0.68-2.05,2.05-2.05H196.4z M159,264.75h37.39c31.92,0,50.62-24.17,50.62-64.76
		c0-40.82-18.7-64.76-50.62-64.76H159V264.75z"/>
	<path fill="#FFFFFF" d="M381.99,196.12c1.37,0,2.05,0.68,2.05,2.05v9.58c0,1.37-0.69,2.05-2.05,2.05h-71.6v66.58
		c0,1.37-0.68,2.05-2.05,2.05h-10.95c-1.37,0-2.05-0.68-2.05-2.05V123.61c0-1.37,0.69-2.05,2.05-2.05h98.05
		c1.6,0,2.28,0.91,1.83,2.28l-2.74,9.58c-0.23,1.37-1.14,1.82-2.28,1.82h-81.86v60.88H381.99z"/>
</g>
</svg>
