<?xml version="1.0" encoding="utf-8"?>
<!-- Generator: Adobe Illustrator 16.0.3, SVG Export Plug-In . SVG Version: 6.00 Build 0)  -->
<!DOCTYPE svg PUBLIC "-//W3C//DTD SVG 1.1//EN" "http://www.w3.org/Graphics/SVG/1.1/DTD/svg11.dtd">
<svg version="1.1" id="Layer_1" xmlns="http://www.w3.org/2000/svg" xmlns:xlink="http://www.w3.org/1999/xlink" x="0px" y="0px"
	 width="530.97px" height="551.99px" viewBox="0 0 530.97 551.99" enable-background="new 0 0 530.97 551.99" xml:space="preserve">
<path fill="#FFFFFF" d="M264.86,17.67C118.61,17.67,0,136.27,0,282.56c0,117,75.9,216.28,181.15,251.31
	c13.24,2.42,18.08-5.76,18.08-12.77c0-6.3-0.24-22.94-0.36-45.06c-73.67,16-89.2-35.51-89.2-35.51
	c-12.05-30.6-29.42-38.74-29.42-38.74c-24.05-16.44,1.8-16.1,1.8-16.1c26.59,1.88,40.57,27.3,40.57,27.3
	c23.63,40.47,62,28.8,77.09,22.02c2.39-17.13,9.23-28.8,16.79-35.42c-58.81-6.68-120.65-29.41-120.65-130.9
	c0-28.91,10.33-52.55,27.29-71.07c-2.73-6.7-11.82-33.62,2.58-70.1c0,0,22.25-7.12,72.83,27.15c21.13-5.87,43.79-8.83,66.31-8.92
	c22.48,0.1,45.15,3.06,66.31,8.92c50.55-34.27,72.77-27.15,72.77-27.15c14.45,36.46,5.36,63.38,2.63,70.1
	c17,18.52,27.24,42.17,27.24,71.07c0,101.75-61.93,124.14-120.94,130.7c9.51,8.18,17.98,24.34,17.98,49.06
	c0,35.41-0.34,63.98-0.34,72.66c0,7.09,4.78,15.31,18.21,12.73c105.15-35.09,180.98-134.31,180.98-251.28
	C529.75,136.27,411.13,17.67,264.86,17.67z"/>
</svg>
